<?xml version="1.0" encoding="UTF-8" standalone="no"?>
<!-- Created with Inkscape (http://www.inkscape.org/) -->

<svg
   xmlns:dc="http://purl.org/dc/elements/1.1/"
   xmlns:cc="http://creativecommons.org/ns#"
   xmlns:rdf="http://www.w3.org/1999/02/22-rdf-syntax-ns#"
   xmlns:svg="http://www.w3.org/2000/svg"
   xmlns="http://www.w3.org/2000/svg"
   xmlns:sodipodi="http://sodipodi.sourceforge.net/DTD/sodipodi-0.dtd"
   xmlns:inkscape="http://www.inkscape.org/namespaces/inkscape"
   id="svg3106"
   version="1.1"
   inkscape:version="0.48.4 r9939"
   width="240"
   height="370"
   sodipodi:docname="lego_trident3.png">
  <metadata
     id="metadata3112">
    <rdf:RDF>
      <cc:Work
         rdf:about="">
        <dc:format>image/svg+xml</dc:format>
        <dc:type
           rdf:resource="http://purl.org/dc/dcmitype/StillImage" />
        <dc:title></dc:title>
      </cc:Work>
    </rdf:RDF>
  </metadata>
  <defs
     id="defs3110" />
  <sodipodi:namedview
     pagecolor="#ffffff"
     bordercolor="#666666"
     borderopacity="1"
     objecttolerance="10"
     gridtolerance="10"
     guidetolerance="10"
     inkscape:pageopacity="0"
     inkscape:pageshadow="2"
     inkscape:window-width="1863"
     inkscape:window-height="1056"
     id="namedview3108"
     showgrid="false"
     fit-margin-top="0"
     fit-margin-left="0"
     fit-margin-right="0"
     fit-margin-bottom="0"
     inkscape:zoom="1.8040778"
     inkscape:cx="19.137497"
     inkscape:cy="166.07051"
     inkscape:window-x="1977"
     inkscape:window-y="24"
     inkscape:window-maximized="1"
     inkscape:current-layer="svg3106" />
  <g
     id="g3948">
    <path
       id="path3144"
       d="m 118.99994,1.0086484 c -1.47275,0.050262 -2.97577,0.3488197 -4.43752,0.9037811 -2.10097,0.7976364 -4.43127,4.3770962 -7.84379,12.0608045 -0.60905,1.371336 -3.39164,6.531857 -6.15629,11.468671 -2.764666,4.936814 -6.436029,11.578889 -8.15629,14.740982 -4.680307,8.603112 -4.150802,14.998471 2.00001,24.152772 2.735414,4.117006 5.147532,7.724802 7.12504,11.998474 0.62419,0.377923 1,25.347177 1,67.690087 0,67.09441 -0.0188,67.08668 -4.031268,70.24561 -4.74306,3.7341 -7.661624,2.58209 -15.343831,1.09078 C 72.008006,212.52329 63.70084,211.61049 52.937094,207.69405 35.346353,202.61421 37.97391,156.80391 35.687006,139.8793 35.183145,130.62914 35.186789,130.6274 41.874537,119.21699 52.364744,101.31894 52.621236,102.21376 31.718235,81.538666 14.856983,64.861256 14.836208,64.834297 9.3743684,64.834297 -9.6009244,70.484738 5.3562216,172.63973 9.8431209,202.39603 c 3.9416951,27.60386 28.3719421,36.47454 52.9690251,52.32581 4.1591,1.86947 11.924762,7.31335 17.062588,11.9673 5.39408,4.88606 4.445723,12.66226 -3.375017,27.86139 -4.72615,9.18498 -4.626817,12.49808 0.562504,18.0133 2.239697,2.38036 4.093771,4.80709 4.093771,5.39152 0,2.09483 -8.73291,19.76646 -11.53131,23.34249 -3.272225,4.18144 -2.913675,11.83837 0.09375,13.18274 4.503729,2.04173 5.966559,2.42204 11.250059,4.02026 3.827175,0.78182 5.073666,2.1542 9.218798,6.51346 4.706471,4.94958 4.69284,4.94928 29.562651,4.98638 0.0946,1.4e-4 0.15617,-1.4e-4 0.25001,0 l 0,-368.9920316 c -0.33191,-0.0132567 -0.66338,-0.0114885 -1.00001,0 z"
       style="fill:#000000;fill-opacity:1;stroke:#000000;stroke-width:0.99863958;stroke-linejoin:miter;stroke-opacity:1"
       inkscape:connector-curvature="0" />
    <path
       id="path3144-2"
       d="m 120.99858,1.0132857 c 1.47275,0.050263 2.97578,0.3488171 4.43753,0.9037812 2.10097,0.7976311 4.43127,4.3770931 7.84379,12.0608021 0.60905,1.371337 3.39164,6.531858 6.15629,11.468671 2.76466,4.936814 6.43603,11.578889 8.15629,14.740982 4.68031,8.603112 4.15081,14.998471 -2.00001,24.152772 -2.73541,4.117006 -5.14753,7.724801 -7.12504,11.998474 -0.62419,0.377923 -1,25.347192 -1,67.690102 0,67.09441 0.0188,67.08668 4.03127,70.24561 4.74306,3.73409 7.66162,2.58207 15.34384,1.09077 11.14799,-2.83731 19.45517,-3.75012 30.21891,-7.66656 17.59075,-5.07984 14.9632,-50.89014 17.25011,-67.81475 0.50385,-9.25016 0.50021,-9.25191 -6.18754,-20.66231 -10.49021,-17.89804 -10.74671,-17.00323 10.1563,-37.678329 16.86127,-16.67741 16.88204,-16.704369 22.34387,-16.704369 18.97532,5.650441 4.01816,107.805438 -0.46874,137.561728 -3.9417,27.60387 -28.37195,36.47456 -52.96905,52.32582 -4.15911,1.86947 -11.92477,7.31336 -17.06259,11.9673 -5.39409,4.88607 -4.44574,12.66225 3.37501,27.8614 4.72616,9.18497 4.62682,12.49806 -0.5625,18.01329 -2.23969,2.38036 -4.09377,4.8071 -4.09377,5.39152 0,2.09483 8.73292,19.76645 11.53131,23.34249 3.27223,4.18144 2.91367,11.83837 -0.0937,13.18273 -4.50372,2.04174 -5.96657,2.42205 -11.25007,4.02027 -3.82717,0.78182 -5.07366,2.1542 -9.21879,6.51346 -4.70648,4.94958 -4.69285,4.94928 -29.56267,4.98638 -0.0946,1.4e-4 -0.15616,-1.4e-4 -0.25,0 l 0,-368.9920343 c 0.33191,-0.013264 0.66337,-0.011469 1,0 z"
       style="fill:#000000;fill-opacity:1;stroke:#000000;stroke-width:0.99863976;stroke-opacity:1"
       inkscape:connector-curvature="0" />
  </g>
</svg>
