<?xml version="1.0" encoding="UTF-8" standalone="no"?>
<!-- Created with Inkscape (http://www.inkscape.org/) -->

<svg
   xmlns:dc="http://purl.org/dc/elements/1.1/"
   xmlns:cc="http://creativecommons.org/ns#"
   xmlns:rdf="http://www.w3.org/1999/02/22-rdf-syntax-ns#"
   xmlns:svg="http://www.w3.org/2000/svg"
   xmlns="http://www.w3.org/2000/svg"
   xmlns:sodipodi="http://sodipodi.sourceforge.net/DTD/sodipodi-0.dtd"
   xmlns:inkscape="http://www.inkscape.org/namespaces/inkscape"
   id="svg4249"
   version="1.1"
   inkscape:version="0.48.4 r9939"
   width="135.55156"
   height="163.37729"
   sodipodi:docname="poseidon.png">
  <metadata
     id="metadata4255">
    <rdf:RDF>
      <cc:Work
         rdf:about="">
        <dc:format>image/svg+xml</dc:format>
        <dc:type
           rdf:resource="http://purl.org/dc/dcmitype/StillImage" />
        <dc:title></dc:title>
      </cc:Work>
    </rdf:RDF>
  </metadata>
  <defs
     id="defs4253" />
  <sodipodi:namedview
     pagecolor="#ffffff"
     bordercolor="#666666"
     borderopacity="1"
     objecttolerance="10"
     gridtolerance="10"
     guidetolerance="10"
     inkscape:pageopacity="0"
     inkscape:pageshadow="2"
     inkscape:window-width="1863"
     inkscape:window-height="1056"
     id="namedview4251"
     showgrid="false"
     fit-margin-top="0"
     fit-margin-left="0"
     fit-margin-right="0"
     fit-margin-bottom="0"
     inkscape:zoom="2.047573"
     inkscape:cx="-30.229237"
     inkscape:cy="101.40251"
     inkscape:window-x="57"
     inkscape:window-y="24"
     inkscape:window-maximized="1"
     inkscape:current-layer="svg4249" />
  <g
     id="g5225"
     transform="matrix(0,-0.07860199,0.10131654,0,-0.20547276,36.967338)"
     style="fill:#f6bb42;fill-opacity:1">
    <g
       transform="translate(-0.004865,0.02802784)"
       style="fill:#f6bb42;fill-opacity:1"
       id="g4410">
      <path
         inkscape:connector-curvature="0"
         id="path4424"
         d="m 331.75667,697.05107 c -4.63164,-1.4765 -7.9296,-4.51548 -9.36002,-8.62504 -1.58191,-4.5448 -1.8751,-20.0123 -0.39665,-20.92603 0.65933,-0.40749 1,-50.72605 1,-147.70603 l 0,-147.08799 -3.56695,-4.35299 C 316.24335,364.46038 315.41747,364 311.62418,364 c -2.33306,0 -5.11543,-0.66069 -6.18305,-1.4682 -1.06762,-0.8075 -2.92811,-1.4825 -4.13443,-1.5 -5.77912,-0.0838 -7.36995,-11.84376 -2.5204,-18.63176 1.53247,-2.14502 4.06852,-6.60004 5.63568,-9.90004 1.56716,-3.3 3.54132,-7.41733 4.38704,-9.14962 1.52217,-3.11786 1.49559,-3.19742 -2.63567,-7.89079 C 302.63269,311.43719 302,310.05454 302,306.33934 c 0,-2.94829 0.81684,-5.67304 2.5,-8.33934 1.375,-2.17814 2.51431,-4.5317 2.5318,-5.23013 0.0175,-0.69843 0.6925,-2.14338 1.5,-3.211 0.80751,-1.06762 1.4682,-2.95356 1.4682,-4.19098 0,-1.23742 0.45,-2.52797 1,-2.86789 1.75243,-1.08306 1.18853,-10.39024 -0.75,-12.37877 -2.45536,-2.51869 -13.43674,-9.98514 -17.25,-11.7286 -0.825,-0.3772 -2.625,-1.67573 -4,-2.88562 -2.04327,-1.79791 -9.34436,-6.60611 -19,-12.51263 -0.825,-0.50467 -5.20758,-3.18486 -9.73906,-5.95598 -4.53149,-2.77112 -8.6333,-5.0384 -9.11514,-5.0384 -2.08168,0 -6.25661,-4.46207 -8.12327,-8.68198 C 241.65136,220.21826 241,216.59676 241,212.07288 c 0,-3.67008 -0.44796,-7.12084 -0.99546,-7.66834 -0.54751,-0.54751 -1.25793,-4.57501 -1.57871,-8.95 -0.32078,-4.375 -0.97279,-8.85454 -1.4489,-9.95454 -0.47611,-1.1 -1.01882,-6.60563 -1.20603,-12.23473 -0.20839,-6.2663 -0.81158,-10.70595 -1.55563,-11.45 C 233.38072,160.98072 233,156.33937 233,147 c 0,-8.45681 -0.41097,-14.01097 -1.08671,-14.68671 -0.70635,-0.70635 -1.28486,-11.44149 -1.6528,-30.66992 l -0.56608,-29.583201 2.66698,-4.030085 C 235.00574,64.034207 235.08168,64 241.30873,64 l 6.28034,0 17.20267,17.25 17.20268,17.25 0.003,6.19098 c 0.002,3.40504 -0.4006,6.4403 -0.89364,6.74501 -0.49304,0.30471 -1.91423,2.46877 -3.1582,4.80902 -3.17088,5.96526 -4.77094,8.79548 -6.92835,12.25499 -1.45594,2.33468 -1.88705,5.03831 -1.94393,12.19098 -0.0402,5.05504 0.30721,9.42602 0.77202,9.71329 0.46481,0.28727 1.1341,5.57312 1.4873,11.74632 0.35321,6.17321 1.09791,11.67973 1.65489,12.23671 0.55699,0.55699 1.0127,4.84516 1.0127,9.52927 0,8.88625 2.16568,17.08343 4.51341,17.08343 0.68294,0 1.8019,0.675 2.48659,1.5 0.68469,0.825 2.42729,1.51431 3.87244,1.5318 1.44516,0.0175 3.50107,0.6925 4.56869,1.5 1.06762,0.80751 2.76123,1.4682 3.76357,1.4682 1.00234,0 2.60383,0.4038 3.55887,0.89734 0.95504,0.49354 3.76143,1.66706 6.23643,2.60783 2.475,0.94076 5.69443,2.33696 7.15429,3.10265 1.45986,0.7657 3.57081,1.39218 4.69099,1.39218 1.12018,0 2.3148,0.45 2.65472,1 1.26527,2.04724 7.44021,1.0687 10.50866,-1.6653 L 331,211.6694 331,144.8347 C 331,104.16441 330.6349,78 330.06739,78 c -0.51294,0 -1.24698,-1.0125 -1.6312,-2.25 -0.38422,-1.2375 -1.65204,-3.590665 -2.81739,-5.229255 C 323.01965,66.866064 321.27422,63.979686 320.46622,62 320.1295,61.175 319.43685,59.718606 318.927,58.763569 318.41715,57.808532 318,54.537089 318,51.493697 318,47.314095 318.61166,44.99132 320.5,42 c 1.375,-2.178141 2.5,-4.617641 2.5,-5.421111 0,-0.80347 0.45118,-1.739703 1.00263,-2.080516 0.55145,-0.340814 1.9094,-2.504872 3.01766,-4.809017 1.10827,-2.304146 2.56958,-5.072308 3.24737,-6.151472 C 334.5009,16.797778 336,13.817644 336,12.142317 336,11.098732 336.675,9.6846892 337.5,9 338.325,8.3153108 339,7.2049551 339,6.5325428 339,3.5486794 342.62394,2 349.60623,2 357.18903,2 361,3.6913606 361,7.056704 361,8.1255168 361.44143,9 361.98095,9 c 0.53952,0 1.28651,1.2375 1.65998,2.75 0.61221,2.479407 2.56362,6.240876 6.11543,11.787884 0.69101,1.079164 1.52291,2.637116 1.84869,3.462116 0.62244,1.576289 5.88524,12.429076 7.27389,15 2.70334,5.004915 3.12106,6.411057 3.12106,10.506303 0,3.112935 -0.78335,5.774345 -2.5,8.493697 -1.375,2.178141 -2.5,4.565757 -2.5,5.305814 0,0.740057 -1.125,2.402441 -2.5,3.694186 -1.375,1.291745 -2.5,3.115087 -2.5,4.051869 0,0.936783 -0.675,2.263442 -1.5,2.948131 -1.30537,1.083359 -1.5,9.735422 -1.5,66.68012 l 0,65.43524 4.75,4.36533 c 4.00664,3.68217 5.21949,4.27844 7.75,3.81008 1.65,-0.30538 3.4275,-0.94574 3.95,-1.42301 0.5225,-0.47727 1.9299,-0.86776 3.12756,-0.86776 1.19765,0 2.73775,-0.675 3.42244,-1.5 0.68469,-0.825 2.03835,-1.5 3.00814,-1.5 0.96978,0 3.05218,-0.67223 4.62755,-1.49384 1.57537,-0.82161 3.62525,-1.49661 4.55529,-1.5 0.93004,-0.003 1.9691,-0.45616 2.30902,-1.00616 0.33992,-0.55 1.88638,-1 3.43657,-1 1.5502,0 3.37874,-0.675 4.06343,-1.5 0.68469,-0.825 2.77444,-1.5 4.64388,-1.5 2.65518,0 3.64827,-0.54709 4.53807,-2.5 0.6265,-1.375 1.51685,-2.5 1.97857,-2.5 0.46171,0 0.83948,-3.735 0.83948,-8.3 0,-4.565 0.4489,-8.7489 0.99756,-9.29756 0.54865,-0.54865 1.29371,-6.50539 1.65567,-13.23719 0.36197,-6.7318 1.03807,-12.47446 1.50245,-12.76146 C 430.62005,155.11679 431,150.1786 431,144.43005 L 431,133.97813 426,126 c -2.75,-4.38797 -5,-8.60295 -5,-9.36662 0,-0.76367 -0.675,-1.94869 -1.5,-2.63338 -1.03825,-0.86167 -1.5,-3.15387 -1.5,-7.44619 l 0,-6.2013 16.79345,-16.532439 c 17.70792,-17.432693 18.5395,-17.963321 26.66487,-17.01473 2.93507,0.342652 4.18621,1.211497 6.26243,4.348869 l 2.59457,3.920667 -0.60264,32.107543 c -0.38264,20.38622 -0.9878,32.4927 -1.65766,33.16256 -0.61633,0.61633 -1.06128,5.85761 -1.07008,12.60502 -0.01,7.50397 -0.51986,12.95122 -1.4561,15.55 -0.81854,2.27205 -1.46002,7.75439 -1.48495,12.69098 -0.0241,4.78004 -0.42497,8.9265 -0.89073,9.21436 -0.46575,0.28785 -1.13418,4.89784 -1.48538,10.2444 -0.3512,5.34657 -1.09513,10.17761 -1.65317,10.73565 C 459.45658,211.94342 459,215.16 459,218.53333 c 0,5.70875 -0.24924,6.38257 -3.60034,9.73368 -1.98019,1.98018 -5.11107,4.31722 -6.95752,5.19342 -1.84645,0.8762 -3.62786,2.03105 -3.95868,2.56633 -0.33082,0.53528 -1.26958,0.97324 -2.08612,0.97324 -0.81655,0 -2.69789,1.125 -4.18077,2.5 -1.48287,1.375 -3.20813,2.5 -3.83391,2.5 -0.62577,0 -1.69797,0.675 -2.38266,1.5 -0.68469,0.825 -2.05229,1.5 -3.03911,1.5 -0.98682,0 -1.94422,0.38306 -2.12756,0.85124 -0.18333,0.46818 -2.20333,1.93068 -4.4889,3.25 -11.31272,6.53016 -24.38663,15.26955 -29.09443,19.44848 -4.00372,3.55395 -5.25,5.33345 -5.25,7.49623 0,1.55981 0.45,3.11413 1,3.45405 0.55,0.33992 1,2.33638 1,4.43657 0,2.17431 0.64589,4.35458 1.5,5.06343 0.825,0.68469 1.5,2.09873 1.5,3.14232 0,1.04358 1.125,3.67954 2.5,5.85768 1.75569,2.78119 2.5,5.36781 2.5,8.68797 0,4.10829 -0.48816,5.22762 -3.72588,8.54335 -3.25297,3.33135 -3.57029,4.0648 -2.5,5.7786 0.67423,1.07962 1.22588,3.10299 1.22588,4.49638 0,2.24107 1.51509,5.40781 5.75636,12.03158 0.69101,1.07917 1.55813,2.63712 1.92695,3.46212 0.36882,0.825 1.71595,3.17856 2.99363,5.23013 3.45911,5.55428 3.05507,8.94228 -1.63734,13.72947 -3.67311,3.7473 -4.35797,4.0404 -9.44098,4.0404 -3.01432,0 -5.7587,0.45 -6.09862,1 -0.33992,0.55 -1.43807,1 -2.44033,1 -1.00226,0 -3.0007,1.54498 -4.44098,3.43328 L 377,372.86656 l 0,159.55253 0,159.55253 -4.17538,2.76419 c -4.11091,2.72151 -4.43901,2.76748 -21.25,2.97699 -9.39104,0.11703 -18.30912,-0.18074 -19.81795,-0.66173 z"
         style="fill:#f6bb42;fill-opacity:1" />
      <path
         inkscape:connector-curvature="0"
         id="path4422"
         d="M 332.44415,696.65559 C 327.52851,694.7967 324,692.08951 324,690.17695 c 0,-0.97732 -0.48223,-2.25918 -1.07163,-2.84858 -0.70816,-0.70816 -0.85278,-4.42218 -0.42638,-10.95 0.3549,-5.4331 0.84007,-76.03497 1.07817,-156.89305 l 0.43291,-147.01467 -4.3475,-4.73533 C 315.84422,363.57308 314.82455,363 311.24008,363 c -2.2429,0 -5.57697,-0.75085 -7.40904,-1.66855 -1.83207,-0.9177 -4.00604,-1.97699 -4.83104,-2.35397 -1.04666,-0.47828 -1.59068,-2.57012 -1.80005,-6.92144 -0.26653,-5.53931 0.0128,-6.64407 2.5,-9.88842 1.54003,-2.00882 4.7215,-7.8708 7.06994,-13.02661 l 4.26988,-9.3742 -4.01988,-4.36106 c -5.33672,-5.78966 -5.46848,-10.37277 -0.57717,-20.07611 7.30953,-14.50059 8.32116,-21.30966 3.80728,-25.6259 -3.13809,-3.00068 -11.01459,-8.95361 -13.25,-10.01414 -0.825,-0.39139 -2.66572,-1.49417 -4.09049,-2.45061 C 275.32913,245.43734 251.88469,231 250.30068,231 c -0.52363,0 -1.86607,-1.0125 -2.98321,-2.25 C 243.61801,224.65195 242,219.9449 242,213.28062 c 0,-3.52666 -0.47154,-7.29319 -1.04787,-8.37007 -1.15796,-2.16367 -2.63755,-13.80401 -3.80644,-29.94637 -0.4196,-5.7947 -1.18654,-11.1947 -1.7043,-12 -0.51776,-0.8053 -1.25369,-7.76418 -1.6354,-15.46418 -0.38171,-7.7 -1.12693,-18.275 -1.65606,-23.5 -0.52913,-5.225 -1.00432,-19.33053 -1.05599,-31.34563 -0.0884,-20.564475 0.0273,-22.015958 1.97415,-24.75 C 234.97446,65.227131 235.62663,65 241.40757,65 l 6.27138,0 16.65298,16.75 16.65298,16.75 0.008,5.67437 c 0.007,5.16189 -0.58628,6.71502 -6.56744,17.19667 l -6.57498,11.5223 0.50674,8.30333 c 0.92562,15.16684 2.60894,30.27344 3.63266,32.60038 0.55581,1.26338 1.01057,6.29932 1.01057,11.19099 0,4.89166 0.41538,9.15064 0.92306,9.46441 0.50769,0.31377 1.22512,1.94573 1.5943,3.62659 0.36918,1.68085 1.4163,3.31909 2.32694,3.64053 0.91063,0.32144 2.3307,1.13622 3.1557,1.81062 0.825,0.67441 2.85,1.46839 4.5,1.7644 3.57226,0.64087 17.54788,5.52554 18.98905,6.63692 0.55602,0.4288 1.91095,1.03166 3.01095,1.3397 1.1,0.30804 4.46865,1.49804 7.48588,2.64443 7.22784,2.74622 8.51442,2.64819 13.12022,-0.99967 l 3.8939,-3.08403 0,-66.35695 c 0,-41.86281 -0.35862,-66.578594 -0.97153,-66.957393 -0.53434,-0.330241 -1.88138,-2.494298 -2.99343,-4.809017 C 326.92299,71.393861 325.12452,68.15 324.03843,66.5 320.39033,60.957773 319,56.788925 319,51.392493 c 0,-5.63565 0.0838,-5.830918 11.109,-25.892493 2.72036,-4.95 5.43444,-10.125 6.03127,-11.5 4.70728,-10.8447359 5.96656,-12 13.08046,-12 6.64819,0 9.43628,1.1103137 10.82475,4.3108017 0.52236,1.2040591 1.3539,2.8641983 1.84787,3.6891983 0.49397,0.825 2.40754,4.540329 4.25239,8.256287 1.84484,3.715957 3.90386,7.765957 4.57559,9 0.67172,1.234042 2.40014,4.718713 3.84092,7.743713 1.44078,3.025 3.45707,7.075 4.48064,9 3.79046,7.128574 1.56843,17.050908 -5.96242,26.624825 C 371.93621,72.079516 371,73.828931 371,74.512414 c 0,0.683483 -0.675,1.802897 -1.5,2.487586 -1.30525,1.083263 -1.5,9.705412 -1.5,66.41004 l 0,65.16514 4.78435,4.71241 c 3.11887,3.07198 5.64266,4.70734 7.25,4.69786 2.4218,-0.0143 9.30862,-2.11483 12.72834,-3.88224 2.63876,-1.36379 9.26399,-3.84379 13.73731,-5.14224 2.2,-0.63858 5.27397,-1.79104 6.83104,-2.56101 1.55707,-0.76998 3.80707,-1.40685 5,-1.41527 2.70555,-0.0191 3.60017,-0.67334 6.41896,-4.6942 1.81289,-2.58599 2.25,-4.56812 2.25,-10.20294 0,-3.8464 0.45117,-8.02712 1.00259,-9.2905 1.0626,-2.43453 2.81476,-19.80922 3.63695,-36.0645 l 0.49404,-9.76745 -5.06679,-8.26224 C 424.28005,122.15863 422,117.72159 422,116.84276 c 0,-0.87883 -0.675,-2.15807 -1.5,-2.84276 -1.03568,-0.85954 -1.5,-3.14793 -1.5,-7.3927 l 0,-6.14781 15.81832,-15.747448 c 16.76692,-16.691785 19.13498,-18.222864 26.39026,-17.062698 2.6265,0.419995 4.46809,1.492217 5.81728,3.38697 1.83064,2.570898 1.96804,4.396745 1.89026,25.118056 -0.0461,12.2901 -0.52479,27.52063 -1.06367,33.84563 -0.53889,6.325 -1.20331,17.11162 -1.47649,23.97027 -0.27318,6.85865 -0.97408,13.0455 -1.55757,13.74855 -0.58348,0.70306 -1.44112,6.11644 -1.90587,12.02973 -1.49688,19.04593 -2.85461,30.27472 -3.89591,32.22041 -0.55914,1.04476 -1.01661,4.39257 -1.01661,7.43958 0,4.96865 -0.341,5.86447 -3.30637,8.68601 -1.81851,1.7303 -5.53101,4.34779 -8.25,5.81666 -4.28894,2.31698 -11.18256,6.48496 -17.968,10.86369 -1.0866,0.7012 -3.86949,2.17651 -6.18421,3.27847 -2.31472,1.10197 -4.45461,2.40167 -4.75532,2.88822 -0.30071,0.48656 -4.93185,3.59919 -10.29142,6.91696 -5.35957,3.31778 -12.16562,8.27557 -15.12456,11.01732 -4.75964,4.4103 -5.30106,5.31006 -4.69626,7.80457 0.37599,1.55076 1.0271,4.61956 1.44692,6.81956 0.41981,2.2 1.22315,4.9 1.78519,6 0.56204,1.1 2.21937,4.31632 3.68296,7.14738 3.96638,7.67227 3.69727,13.46327 -0.86006,18.50768 -2.87242,3.17943 -3.333,4.24899 -2.5,5.80546 0.56162,1.0494 1.02113,2.86959 1.02113,4.04488 0,1.17528 2.925,7.23118 6.5,13.45755 7.54123,13.13412 7.97106,15.79202 3.39641,21.00225 -2.71054,3.08714 -3.69204,3.53671 -7.75,3.54986 -6.56244,0.0213 -11.75151,2.10084 -15.14477,6.06943 l -2.92036,3.41551 -0.0406,159.68191 -0.0406,159.6819 -2.75,1.92592 c -1.5125,1.05925 -4.1,2.28519 -5.75,2.72431 -4.97651,1.32442 -31.64315,1.4321 -35.05585,0.14155 z"
         style="fill:#f6bb42;fill-opacity:1" />
      <path
         inkscape:connector-curvature="0"
         id="path4420"
         d="m 331.5,695.60499 c -2.75,-1.25389 -5.48144,-2.91547 -6.06987,-3.6924 -2.52644,-3.33575 -3.60311,-9.57399 -2.92565,-16.95134 0.37684,-4.10369 0.85244,-74.06125 1.05689,-155.46125 l 0.37172,-148 -3.35491,-3.91496 c -2.73401,-3.19041 -4.25466,-4.05182 -8.21654,-4.65447 -6.54553,-0.99566 -12.42897,-3.30217 -14.03875,-5.50367 -2.1788,-2.97969 -1.63391,-9.69456 1.09783,-13.52902 C 303.01589,338.85145 311,322.38404 311,320.01534 c 0,-0.71042 -1.8,-3.24445 -4,-5.63117 -5.15059,-5.58772 -5.17403,-8.48768 -0.15264,-18.88417 C 311.79521,285.25575 313,281.41111 313,275.86609 c 0,-3.62903 -0.52827,-4.97097 -2.75,-6.98576 -4.76571,-4.32181 -12.41513,-9.73059 -16.25,-11.49012 -0.825,-0.37853 -2.4,-1.47515 -3.5,-2.43694 -1.1,-0.96179 -10.1,-6.70634 -20,-12.76566 -9.9,-6.05932 -19.34763,-11.85059 -20.99473,-12.86949 -4.42267,-2.73588 -7.37518,-9.52962 -7.44624,-17.13386 -0.0325,-3.47366 -0.49595,-7.13213 -1.02996,-8.12994 -1.1631,-2.17328 -2.8842,-15.60176 -3.85198,-30.05432 -0.38671,-5.775 -1.14725,-11.175 -1.6901,-12 -0.54284,-0.825 -1.30158,-7.8 -1.68607,-15.5 -0.38449,-7.7 -1.1269,-18.5 -1.64979,-24 -0.52288,-5.5 -0.9958,-19.04595 -1.05092,-30.102117 -0.0965,-19.361949 -0.0161,-20.227228 2.18402,-23.5 2.0894,-3.10808 2.76629,-3.4233 7.93639,-3.695889 L 246.87278,64.903988 263.93639,82.1105 281,99.317013 l 0,4.820827 c 0,4.10721 -0.97249,6.5198 -6.56964,16.29821 l -6.56963,11.47738 0.49887,9.29328 c 0.84658,15.7705 2.56781,31.78914 3.62884,33.77169 0.55636,1.03956 1.01156,5.61716 1.01156,10.17243 0,8.65568 2.1948,16.84917 4.51341,16.84917 0.68294,0 1.8019,0.675 2.48659,1.5 0.68469,0.825 2.35786,1.5 3.71815,1.5 1.3603,0 3.6677,0.61763 5.12756,1.37252 1.45986,0.75488 4.45429,1.93167 6.65429,2.61509 3.72538,1.15727 6.42771,2.20769 14,5.44193 10.17012,4.34381 14.40888,4.52633 19.0534,0.82046 l 3.44654,-2.75 3e-5,-66.57242 3e-5,-66.572416 -3.05356,-5.427582 C 327.26699,70.942412 325.03132,67.15 323.9783,65.5 317.99129,56.118831 317.51887,50.111433 322.08233,41.390465 323.77762,38.150709 327.14893,31.9 329.57414,27.5 c 2.4252,-4.4 5.13834,-9.575 6.02918,-11.5 4.22385,-9.1271778 6.02788,-12.2409554 7.58094,-13.0848343 2.65474,-1.4424899 11.1464,-1.0722942 13.51873,0.5893521 1.1814,0.8274847 4.45041,6.1149847 7.26446,11.7500002 C 366.7815,20.889533 369.5053,26.175 370.02032,27 c 0.51503,0.825 2.40865,4.57039 4.20805,8.323089 1.7994,3.752699 4.03752,8.252699 4.9736,10 2.56214,4.782511 2.19988,9.709882 -1.18724,16.148912 -1.6419,3.121301 -3.8919,6.827683 -5,8.236404 C 371.90663,71.117127 371,72.828931 371,73.512414 c 0,0.683483 -0.675,1.802897 -1.5,2.487586 -1.30576,1.083686 -1.4993,9.807876 -1.4946,67.37244 l 0.005,66.12756 4.92294,4.75 c 2.70761,2.6125 5.38946,4.75 5.95965,4.75 1.44618,0 9.99675,-2.82972 13.60662,-4.50296 4.80898,-2.22905 16.90835,-6.49416 18.52121,-6.52884 0.81334,-0.0175 2.3523,-0.6925 3.41992,-1.5 1.06762,-0.80751 3.18222,-1.4682 4.69911,-1.4682 1.95237,0 3.50309,-0.97689 5.30887,-3.34439 2.19027,-2.8716 2.55089,-4.36526 2.55089,-10.56574 0,-3.97175 0.4466,-8.05584 0.99245,-9.07576 1.09043,-2.0375 2.88114,-20.39205 3.6468,-37.37927 l 0.48972,-10.86517 -5.06449,-8.25847 C 424.27902,120.96904 422,116.57596 422,115.74881 c 0,-0.82716 -0.675,-2.06412 -1.5,-2.74881 -0.98804,-0.82 -1.5,-3.0537 -1.5,-6.54458 l 0,-5.2997 9.25,-9.222807 c 5.0875,-5.072546 12.73273,-12.555183 16.9894,-16.628082 l 7.7394,-7.405271 5.72637,0.30022 c 5.25399,0.275454 5.91481,0.580522 8.0106,3.698103 2.20344,3.27771 2.28106,4.126521 2.19472,24 -0.0492,11.331167 -0.51684,26.002117 -1.03912,32.602117 -0.52228,6.6 -1.2695,17.625 -1.66048,24.5 -0.39099,6.875 -1.13452,13.15888 -1.65228,13.96418 -0.51776,0.8053 -1.28466,6.2053 -1.70422,12 -1.19655,16.52611 -2.74248,29.32735 -3.84427,31.83287 -0.55557,1.26338 -1.01012,4.82056 -1.01012,7.90484 0,5.21214 -0.27083,5.86143 -3.8388,9.20295 -2.11133,1.97734 -6.04883,4.71617 -8.75,6.08629 -2.70116,1.37013 -5.8112,3.2387 -6.9112,4.15239 -1.1,0.91369 -4.7,3.13144 -8,4.92832 -10.86361,5.91535 -13.38142,7.46212 -28.5,17.50841 -3.575,2.37559 -8.46247,6.13556 -10.86104,8.35548 -4.68869,4.33947 -4.50968,3.37583 -2.61269,14.06427 0.65593,3.69576 2.1584,7.46398 6.08074,15.25052 3.57824,7.10346 3.22662,11.84918 -1.20637,16.28218 -2.77051,2.77051 -3.44348,4.10228 -2.9224,5.78333 0.37233,1.20118 1.01791,3.75897 1.43461,5.68397 0.41671,1.925 3.53179,8.30043 6.9224,14.16763 3.39061,5.86719 6.16475,11.65763 6.16475,12.86764 0,1.22225 -1.72547,3.92549 -3.88235,6.08238 -3.31591,3.3159 -4.51961,3.88455 -8.25,3.89741 -6.14466,0.0212 -11.18879,2.02472 -14.24666,5.65878 L 376,371.78871 l 0,159.45066 c 0,154.5624 -0.0574,159.50261 -1.87253,161.14527 -4.33378,3.92202 -11.99784,5.61813 -25.11335,5.55775 -10.82124,-0.0498 -13.19051,-0.36601 -17.51412,-2.3374 z"
         style="fill:#f6bb42;fill-opacity:1" />
      <path
         inkscape:connector-curvature="0"
         id="path4418"
         d="m 341.5,697.39406 c -8.62209,-1.1926 -16.5,-5.13736 -16.5,-8.26215 0,-0.95255 -0.48463,-2.21654 -1.07696,-2.80887 -0.71066,-0.71066 -0.8532,-4.09494 -0.41908,-9.95 0.36184,-4.88017 0.84939,-75.47967 1.08346,-156.88776 l 0.42557,-148.01473 -4.34746,-4.73527 C 316.84422,362.57308 315.82455,362 312.24008,362 c -2.2429,0 -5.57697,-0.75085 -7.40904,-1.66855 -1.83207,-0.9177 -4.00604,-1.97655 -4.83104,-2.35299 -0.98909,-0.45132 -1.60394,-2.46592 -1.80515,-5.91476 -0.26011,-4.45839 0.10885,-5.77034 2.5,-8.8894 C 303.44365,339.58872 312,321.88951 312,319.78908 c 0,-0.58598 -1.8,-3.01819 -4,-5.40491 -5.09734,-5.52995 -5.19966,-8.84502 -0.55728,-18.05453 4.70792,-9.33953 6.52553,-15.00219 6.54273,-20.38347 0.0123,-3.86408 -0.47771,-5.009 -3.23545,-7.55888 -5.04676,-4.66638 -12.66462,-10.12262 -16.75,-11.99708 -0.825,-0.37853 -2.4,-1.44052 -3.5,-2.35999 -1.85581,-1.55123 -12.15348,-8.07624 -30.58393,-19.37918 C 255.7449,232.09297 251.88585,230 251.34038,230 c -0.54546,0 -1.90577,-1.0125 -3.02291,-2.25 C 244.61801,223.65195 243,218.9449 243,212.28062 c 0,-3.52666 -0.47154,-7.29319 -1.04787,-8.37007 -1.15796,-2.16367 -2.63755,-13.80401 -3.80644,-29.94637 -0.4196,-5.7947 -1.18654,-11.1947 -1.7043,-12 -0.51776,-0.8053 -1.25369,-7.76418 -1.6354,-15.46418 -0.38171,-7.7 -1.12693,-18.275 -1.65606,-23.5 -0.52913,-5.225 -1.00432,-18.88053 -1.05599,-30.34563 -0.0881,-19.553938 0.0342,-21.025597 1.97415,-23.75 C 235.91018,66.317405 236.72158,66 241.49276,66 l 5.35656,0 16.55898,16.75 16.55898,16.75 0.0164,4.78425 c 0.014,4.08109 -0.94914,6.46576 -6.55284,16.22513 l -6.56921,11.44088 0.49493,9.27487 c 0.79891,14.97132 2.54385,31.09645 3.63291,33.57192 0.55581,1.26338 1.01057,6.29932 1.01057,11.19099 0,4.89166 0.41538,9.15064 0.92306,9.46441 0.50769,0.31377 1.22512,1.94573 1.5943,3.62659 0.36918,1.68085 1.4163,3.31909 2.32694,3.64053 0.91063,0.32144 2.3307,1.13622 3.1557,1.81062 0.825,0.67441 2.85,1.46839 4.5,1.7644 3.57226,0.64087 17.54788,5.52554 18.98905,6.63692 0.55602,0.4288 1.91095,1.03166 3.01095,1.3397 1.1,0.30804 4.46865,1.49804 7.48588,2.64443 7.54604,2.86711 10.41377,2.66106 15.07276,-1.083 L 333,212.66527 l 0,-67.27362 c 0,-42.45601 -0.3584,-67.495121 -0.97153,-67.874053 -0.53434,-0.330241 -1.88138,-2.494298 -2.99343,-4.809017 -1.11205,-2.314719 -2.91052,-5.55858 -3.99661,-7.20858 -6.20783,-9.430996 -6.61081,-16.083697 -1.51437,-25 1.88624,-3.3 4.08418,-7.443773 4.88432,-9.208385 0.80013,-1.764612 3.22234,-6.264612 5.38267,-10 2.16034,-3.735388 4.21685,-7.997842 4.57003,-9.47212 0.35318,-1.474278 2.15705,-4.2867775 4.00861,-6.2499999 C 345.04035,2.7377679 346.4941,2 349.40326,2 c 4.15109,0 8.34117,2.3468156 9.68555,5.4247638 0.49853,1.1413799 1.31057,2.7502362 1.80454,3.5752362 0.49397,0.825 2.40754,4.540329 4.25239,8.256287 1.84484,3.715957 3.90386,7.765957 4.57559,9 0.67172,1.234042 2.40014,4.718713 3.84092,7.743713 1.44078,3.025 3.45707,7.075 4.48064,9 2.72345,5.121896 2.43026,10.151125 -0.96242,16.508862 -1.60574,3.009089 -3.85574,6.661273 -5,8.115963 C 370.93621,71.079516 370,72.828931 370,73.512414 c 0,0.683483 -0.675,1.802897 -1.5,2.487586 -1.3057,1.083638 -1.5,9.824007 -1.5,67.47739 l 0,66.2325 5.46861,5.17198 c 4.65388,4.40144 5.883,5.08137 8.25,4.56378 3.35926,-0.73458 7.73185,-2.20449 11.78139,-3.9605 4.89922,-2.12445 10.73589,-4.28464 15,-5.55162 2.2,-0.65367 5.19443,-1.80613 6.65429,-2.56101 1.45986,-0.75489 3.78455,-1.37252 5.16597,-1.37252 1.72421,0 3.4786,-1.22083 5.59571,-3.8939 2.78637,-3.51808 3.08403,-4.57523 3.08403,-10.95295 0,-3.88247 0.45117,-8.09272 1.00259,-9.3561 1.12137,-2.56917 2.90041,-20.69849 3.63781,-37.07097 l 0.48524,-10.77393 -5.06282,-8.25576 C 425.27827,121.15572 423,116.72159 423,115.84276 c 0,-0.87883 -0.675,-2.15807 -1.5,-2.84276 -0.97918,-0.81265 -1.5,-3.03896 -1.5,-6.41197 l 0,-5.16708 16.31852,-16.210473 c 11.42166,-11.346029 17.04817,-16.255729 18.75,-16.361277 5.9159,-0.366904 8.50752,0.350379 10.67651,2.954933 2.17954,2.61722 2.24273,3.323088 2.16612,24.195867 -0.0434,11.825 -0.51982,26.675 -1.0587,33 -0.53889,6.325 -1.20331,17.11162 -1.47649,23.97027 -0.27318,6.85865 -0.97408,13.0455 -1.55757,13.74855 -0.58348,0.70306 -1.44112,6.11644 -1.90587,12.02973 -1.49688,19.04593 -2.85461,30.27472 -3.89591,32.22041 -0.55914,1.04476 -1.01661,4.46351 -1.01661,7.59722 0,5.1796 -0.30526,5.98118 -3.35718,8.81574 -1.84646,1.71495 -5.55896,4.24308 -8.25,5.61808 -2.69105,1.375 -6.09928,3.45733 -7.57385,4.62741 -1.47457,1.17007 -4.62457,3.13726 -7,4.37154 -20.07167,10.42923 -43.27596,26.98934 -44.46692,31.73451 -0.35456,1.41266 -0.12881,3.99499 0.50165,5.7385 0.63047,1.74352 1.1463,4.11412 1.1463,5.268 0,2.13057 0.6629,3.7256 5.36434,12.90742 3.75957,7.34235 3.5123,11.63989 -0.95421,16.58377 -2.71404,3.00412 -3.42314,4.49752 -2.90651,6.1212 0.37585,1.18121 0.92873,3.49765 1.22863,5.14765 0.2999,1.65 3.40783,7.99707 6.90651,14.1046 3.49868,6.10754 6.36124,12.05438 6.36124,13.21521 0,1.16083 -1.39662,3.70126 -3.10359,5.64539 -2.71054,3.08714 -3.69204,3.53671 -7.75,3.54986 -6.56244,0.0213 -11.75151,2.10084 -15.14477,6.06943 l -2.92036,3.41551 -0.0406,159.68191 -0.0406,159.6819 -2.90437,2.0681 c -1.5974,1.13745 -3.65199,2.06809 -4.56574,2.06809 -0.91376,0 -2.42321,0.40772 -3.35435,0.90605 -1.94412,1.04046 -18.19932,2.10716 -22.67554,1.48801 z"
         style="fill:#f6bb42;fill-opacity:1" />
      <path
         inkscape:connector-curvature="0"
         id="path4416"
         d="m 341,696.41361 c -14.68586,-2.62071 -17.72438,-6.47785 -16.49707,-20.94154 0.37205,-4.38464 0.86402,-74.58909 1.09326,-156.00989 l 0.4168,-148.03783 -4.8169,-5.21217 C 316.85974,361.52 315.95985,361 312.17602,361 c -2.31174,0 -4.98455,-0.44981 -5.93959,-0.99957 -0.95504,-0.54976 -2.97393,-1.43862 -4.48643,-1.97525 -2.52054,-0.89427 -2.75,-1.40793 -2.75,-6.15604 0,-3.97983 0.5772,-5.93711 2.49067,-8.44579 2.43585,-3.19357 9.57946,-17.66066 10.97274,-22.22175 0.55742,-1.8248 -0.13919,-3.21107 -3.38066,-6.72765 -4.79502,-5.20199 -5.39038,-9.81673 -1.98678,-15.39979 C 310.80915,292.9833 315,280.73613 315,275.97576 c 0,-3.98943 -0.4763,-5.01614 -3.75,-8.08344 -5.39937,-5.05896 -12.94181,-10.52542 -17.25,-12.50211 -0.825,-0.37853 -2.4,-1.45706 -3.5,-2.39673 C 287.55545,250.47812 252.50098,229 251.34019,229 c -1.38918,0 -4.73091,-3.96542 -6.14935,-7.29705 C 244.53588,220.16457 244,215.97248 244,212.38721 c 0,-3.58528 -0.50819,-7.46826 -1.12932,-8.62885 -1.15622,-2.1604 -2.28262,-11.08702 -3.77258,-29.89724 -0.46349,-5.85138 -1.23767,-11.25138 -1.7204,-12 -0.48274,-0.74861 -1.18751,-7.66112 -1.56618,-15.36112 -0.37866,-7.7 -1.12698,-18.05 -1.66292,-23 -0.53595,-4.95 -1.01363,-18.57833 -1.06153,-30.285183 C 232.98228,67.599215 233.17467,67 241.50382,67 l 5.27379,0 16.09798,16.25 16.09798,16.25 0.0132,4.85819 c 0.0113,4.16386 -0.91576,6.47612 -6.48679,16.17886 l -6.5,11.32067 0,8.25014 c 0,4.53758 0.42701,9.63209 0.94891,11.32114 0.93827,3.03653 2.35933,15.13668 3.94265,33.571 0.93565,10.89365 2.93056,17.00584 6.08185,18.63418 1.20723,0.62381 2.69708,1.63631 3.31077,2.25 0.6137,0.6137 2.02877,1.11582 3.14461,1.11582 2.08571,0 8.73089,2.33621 25.92667,9.11491 12.62506,4.97689 14.95094,4.97696 20.39498,6.1e-4 L 334,212.23105 334,145.23797 C 334,86.908516 333.80602,78.083899 332.5,77 331.675,76.315311 331,75.296339 331,74.735618 331,74.174897 329.29597,70.967497 327.21326,67.608063 318.92025,54.231326 318.86297,51.102292 326.6394,36.262027 329.74108,30.342912 333.73209,23.025 335.50833,20 c 1.77623,-3.025 3.51337,-6.702818 3.8603,-8.172928 0.34693,-1.47011 1.79592,-4.0576102 3.21997,-5.7499999 2.14014,-2.5434073 3.31086,-3.0715564 6.75029,-3.0452687 5.49804,0.042022 8.43446,2.389708 11.21717,8.9681966 0.74199,1.754117 5.76906,11.767272 9.67049,19.262143 1.4996,2.880822 3.20623,6.362857 3.7925,7.737857 0.58628,1.375 1.92522,4.075 2.97542,6 2.80573,5.142836 2.49853,10.113927 -1.03412,16.73397 -1.67181,3.132898 -3.62236,6.386894 -4.33457,7.231104 -0.7122,0.844209 -2.26936,3.461283 -3.46034,5.81572 C 366.01071,79.040408 366,79.384425 366,144.31495 l 0,65.25337 5.28145,5.21584 c 7.23661,7.14672 9.11054,7.06376 28.21855,-1.24935 1.65,-0.71785 5.25,-2.00323 8,-2.85639 2.75,-0.85317 6.35,-2.01702 8,-2.58634 1.65,-0.56932 4.19126,-1.26991 5.64725,-1.55687 4.29504,-0.84649 7.23219,-6.68486 8.06697,-16.03521 2.10607,-23.59006 2.97269,-31.29107 3.83414,-34.071 C 433.57176,154.73995 434,148.92772 434,143.51293 l 0,-9.84506 -4.34881,-7.08394 C 423.13881,115.97568 421,110.86279 421,105.90298 c 0,-4.43149 0.11669,-4.58131 15.28794,-19.628401 8.40836,-8.339556 16.56389,-15.647946 18.12339,-16.240868 3.95495,-1.50367 9.18126,-0.304441 11.04068,2.533394 1.28913,1.967456 1.53027,6.089155 1.44202,24.647712 -0.0583,12.256853 -0.5273,27.010183 -1.04226,32.785183 -0.51496,5.775 -1.25478,16.35 -1.64403,23.5 -0.38926,7.15 -1.09649,13.60245 -1.57162,14.33877 -0.47513,0.73632 -1.25151,5.91132 -1.72529,11.5 -1.86493,21.99849 -2.78198,29.55195 -3.82432,31.49958 -0.59758,1.11659 -1.08651,4.57921 -1.08651,7.6947 0,5.01343 -0.3473,5.98895 -3.02144,8.48698 -1.66179,1.55234 -5.18188,3.89904 -7.82243,5.21488 -2.64055,1.31584 -6.36763,3.58736 -8.28239,5.04782 -1.91477,1.46047 -5.03217,3.36819 -6.92757,4.23938 -7.38618,3.39498 -28.01988,16.65696 -36.2416,23.29372 -7.68016,6.1996 -9.1272,8.28448 -8.36274,12.04901 1.9887,9.79327 4.5346,17.24367 7.62387,22.31073 3.22433,5.28859 2.70212,10.34284 -1.55557,15.05558 -2.71404,3.00412 -3.42314,4.49752 -2.90651,6.1212 0.37585,1.18121 0.93314,3.49264 1.23843,5.13652 0.30529,1.64388 3.41321,7.98215 6.90651,14.08506 3.49329,6.1029 6.35144,12.03588 6.35144,13.1844 0,1.14852 -1.165,3.47275 -2.58889,5.16494 -2.23264,2.65334 -3.2533,3.07673 -7.4171,3.07673 -6.32476,0 -12.8797,2.91996 -15.99401,7.12468 l -2.5,3.37532 -0.5,159.81305 -0.5,159.81306 -2.5,1.31363 c -1.375,0.7225 -4.10416,1.81811 -6.0648,2.4347 -3.8899,1.22332 -19.92636,2.25455 -23.9352,1.53917 z"
         style="fill:#f6bb42;fill-opacity:1" />
      <path
         inkscape:connector-curvature="0"
         id="path4414"
         d="m 341,696.0276 c -9.68267,-1.69179 -15,-4.52153 -15,-7.98259 0,-0.90475 -0.48739,-2.1324 -1.08309,-2.7281 -0.7134,-0.7134 -0.85344,-3.7683 -0.41026,-8.95 0.37005,-4.3268 0.86035,-74.92174 1.08954,-156.87765 l 0.41671,-149.01074 -4.5413,-4.73926 C 317.58173,361.67982 316.37315,361 313.04619,361 c -2.13626,0 -5.38308,-0.75085 -7.21515,-1.66855 -1.83207,-0.9177 -4.00604,-1.9763 -4.83104,-2.35243 -0.93761,-0.42748 -1.61285,-2.39155 -1.801,-5.23857 -0.2515,-3.80574 0.16786,-5.10438 2.55029,-7.89757 C 305.01134,340.01842 313,322.96013 313,319.81909 c 0,-1.15248 -1.8,-4.0482 -4,-6.43492 -4.93808,-5.35718 -5.0097,-7.39635 -0.56662,-16.13297 5.10965,-10.04733 6.70431,-15.55554 6.3657,-21.98814 -0.29821,-5.66486 -0.31804,-5.69701 -6.79908,-11.02162 -3.575,-2.9371 -7.4,-5.78729 -8.5,-6.33375 -2.67286,-1.32783 -4.65003,-2.54931 -13.5,-8.34016 -15.57741,-10.19284 -20.74813,-13.38351 -30.21577,-18.64507 -6.48733,-3.60528 -7.61483,-4.66845 -9.84403,-9.28236 C 244.64249,218.95415 244,215.51231 244,211.24643 c 0,-3.50785 -0.47154,-7.259 -1.04787,-8.33588 -1.15796,-2.16367 -2.63755,-13.80401 -3.80644,-29.94637 -0.4196,-5.7947 -1.18654,-11.1947 -1.7043,-12 -0.51776,-0.8053 -1.25369,-7.76418 -1.6354,-15.46418 -0.38171,-7.7 -1.12693,-18.275 -1.65606,-23.5 -0.52913,-5.225 -1.00432,-18.55181 -1.05599,-29.615141 -0.0883,-18.912915 0.0299,-20.27262 1.97864,-22.75 C 236.74943,67.503084 237.98356,67 241.5362,67 c 4.34598,0 4.56074,0.170027 20.92742,16.568128 20.26733,20.306242 19.85068,18.801832 9.97212,36.006752 l -6.56427,11.43259 0.48481,10.24627 c 0.71646,15.14219 2.48173,31.9261 3.63315,34.54331 0.55581,1.26338 1.01057,6.29932 1.01057,11.19099 0,4.89166 0.41538,9.15064 0.92306,9.46441 0.50769,0.31377 1.22512,1.94573 1.5943,3.62659 0.36918,1.68085 1.4163,3.31909 2.32694,3.64053 0.91063,0.32144 2.3307,1.13622 3.1557,1.81062 0.825,0.67441 2.85,1.46839 4.5,1.7644 3.57226,0.64087 17.54788,5.52554 18.98905,6.63692 0.55602,0.4288 1.91095,1.03166 3.01095,1.3397 1.1,0.30804 4.46865,1.49804 7.48588,2.64443 8.04682,3.05738 12.32895,2.76486 17.06335,-1.16564 l 3.91472,-3.25 0.018,-68.19098 c 0.0114,-43.06985 -0.33987,-68.412183 -0.9535,-68.791423 -0.53434,-0.330241 -1.88138,-2.494298 -2.99343,-4.809017 C 328.92299,69.393861 327.12452,66.15 326.03843,64.5 320.05006,55.402415 319.65683,50.423514 324.25,41.855766 333.47821,24.642151 336.87459,18.158007 341.28968,9.3247218 343.42317,5.0562549 346.36053,3 350.32455,3 c 2.82204,0 6.52233,2.5593938 7.73618,5.3509136 C 358.5747,9.5329111 359.42051,11.175 359.9403,12 c 0.51979,0.825 2.37355,4.425 4.11947,8 1.74591,3.575 3.7838,7.625 4.52863,9 0.74484,1.375 2.53307,4.975 3.97385,8 1.44078,3.025 3.45707,7.075 4.48064,9 1.02358,1.925 1.88266,4.789102 1.90908,6.364672 0.0493,2.940159 -3.63849,10.736345 -7.67706,16.229719 C 370.02371,70.296306 369,72.153706 369,72.721946 c 0,0.568241 -0.675,1.593365 -1.5,2.278054 -1.3061,1.083971 -1.5,9.932231 -1.5,68.45141 l 0,67.20652 5.60343,5.26292 c 5.19061,4.87519 5.87208,5.21633 9.25,4.63042 3.81685,-0.66205 7.60564,-1.88022 12.64657,-4.06612 4.89922,-2.12445 10.73589,-4.28464 15,-5.55162 2.2,-0.65367 5.19443,-1.80613 6.65429,-2.56101 1.45986,-0.75489 3.78455,-1.37252 5.16597,-1.37252 1.72421,0 3.4786,-1.22083 5.59571,-3.8939 2.78637,-3.51808 3.08403,-4.57523 3.08403,-10.95295 0,-3.88247 0.45117,-8.09272 1.00259,-9.3561 1.16703,-2.67378 2.9548,-21.27828 3.63448,-37.82219 0.51988,-12.65439 1.12074,-10.6126 -7.20248,-24.47486 -1.32093,-2.2 -2.40909,-4.7324 -2.41814,-5.62756 C 424.0074,113.97729 423.325,112.68469 422.5,112 c -0.9019,-0.74851 -1.5,-2.93612 -1.5,-5.48638 0,-4.1439 0.35409,-4.59257 15.38903,-19.499952 8.46396,-8.392155 16.00146,-15.646494 16.75,-16.120753 0.74853,-0.474259 3.24081,-0.86918 5.53839,-0.877602 3.33219,-0.01222 4.59677,0.517806 6.25,2.619546 1.95145,2.480872 2.06768,3.839652 1.9887,23.25 -0.0461,11.338331 -0.52479,25.790141 -1.06367,32.115141 -0.53889,6.325 -1.20331,17.11162 -1.47649,23.97027 -0.27318,6.85865 -0.97408,13.0455 -1.55757,13.74855 -0.58348,0.70306 -1.44112,6.11644 -1.90587,12.02973 -1.49688,19.04593 -2.85461,30.27472 -3.89591,32.22041 -0.55914,1.04476 -1.01661,4.46351 -1.01661,7.59722 0,5.1796 -0.30526,5.98118 -3.35718,8.81574 -1.84646,1.71495 -5.55896,4.23909 -8.25,5.60921 -2.69105,1.37013 -5.79282,3.23914 -6.89282,4.15337 -2.29074,1.90387 -11.06096,6.95464 -17.11789,9.85819 -2.26484,1.08571 -4.60593,2.56206 -5.20241,3.28078 -0.59648,0.71872 -5.31242,3.92227 -10.47987,7.11902 -5.16745,3.19674 -11.76129,7.98737 -14.65299,10.64584 -5.08773,4.6774 -5.24014,4.97282 -4.71682,9.14263 1.2942,10.31193 1.82613,11.97473 7.34003,22.94437 3.33463,6.63409 3.05032,9.81613 -1.27497,14.26973 -3.00103,3.09007 -3.50358,4.20463 -3,6.65341 0.33271,1.61784 0.89283,4.37215 1.24471,6.12069 0.35189,1.74854 3.49701,8.16104 6.98916,14.25 3.49215,6.08896 6.35424,11.61768 6.36021,12.28604 0.006,0.66837 -1.38578,2.80587 -3.09275,4.75 -2.71054,3.08714 -3.69204,3.53671 -7.75,3.54986 -6.59632,0.0214 -11.2937,1.94416 -14.96516,6.12572 L 374,370.76403 l 0,159.5454 0,159.54541 -2.63486,2.07258 C 369.91597,693.06734 367.86139,694 366.7994,694 c -1.06199,0 -2.6888,0.39866 -3.61514,0.88591 -2.47896,1.30393 -16.9835,2.05039 -22.18426,1.14169 z"
         style="fill:#f6bb42;fill-opacity:1" />
      <path
         inkscape:connector-curvature="0"
         style="fill:#f6bb42;fill-opacity:1"
         d="m 120.5,2.03125 c -2.08351,-0.072728 -4.22817,0.3217824 -5.3125,1.21875 -2.26006,1.869545 -4.875,6.418954 -4.875,8.5 0,1.009351 -0.45941,2.30316 -1.03125,2.875 -1.35701,1.357006 -5.44008,8.63114 -8.1875,14.625 C 99.89626,31.8625 98.57194,34 98.125,34 c -0.44693,0 -0.8125,0.869959 -0.8125,1.9375 0,1.067541 -0.42232,2.212856 -0.9375,2.53125 -3.23781,2.001079 -5.65275,15.430387 -3.0625,17.03125 0.55,0.339919 1,1.494959 1,2.5625 0,1.067541 0.42923,1.9375 0.96875,1.9375 0.53952,0 1.27989,1.125 1.625,2.5 0.3451,1.375 0.95087,2.5 1.34375,2.5 0.39289,0 1.70764,2.006208 2.9375,4.46875 1.22985,2.462541 2.66986,4.742582 3.1875,5.0625 0.57325,0.354289 0.9375,27.10095 0.9375,68.4375 l 0,67.875 -4.25,4.0625 C 97.33477,218.4712 96.23952,218.991 92.125,219 c -2.58004,0.006 -4.97258,-0.45 -5.3125,-1 -0.33992,-0.55 -1.30933,-1 -2.15625,-1 -1.55784,0 -6.50652,-1.92937 -11.6875,-4.5625 C 71.41168,211.64615 69.30422,211 68.28125,211 c -1.02297,0 -2.12883,-0.45 -2.46875,-1 -0.33992,-0.55 -1.38246,-0.997 -2.3125,-1 -0.93004,-0.003 -2.98713,-0.67839 -4.5625,-1.5 -1.57537,-0.82161 -4.05412,-1.5 -5.53125,-1.5 -1.47713,0 -3.1988,-0.5113 -3.8125,-1.125 -0.61369,-0.61369 -2.10527,-1.62619 -3.3125,-2.25 -3.31569,-1.71328 -5.26996,-8.07905 -5.71875,-18.625 -0.22205,-5.2178 -0.81915,-9.96805 -1.3125,-10.5625 -0.49335,-0.59445 -1.18779,-6.11163 -1.5625,-12.28125 -0.37472,-6.16962 -1.06512,-11.46191 -1.53125,-11.75 -0.46614,-0.28809 -0.84375,-5.02153 -0.84375,-10.5 0,-8.68546 0.28689,-10.43498 2.3125,-13.6875 1.27768,-2.05157 2.63118,-4.39375 3,-5.21875 0.36882,-0.825 1.24649,-2.38958 1.9375,-3.46875 4.81962,-7.527 5.75,-9.80584 5.75,-14.0625 l 0,-4.59375 L 32.34375,81.9375 C 16.58739,66.200438 16.3245,66 12,66 c -3.10775,0 -4.90687,0.584917 -6.1875,2 -1.68123,1.857733 -1.76028,3.993936 -1.25,31.09375 0.36099,19.1708 0.89875,29.4925 1.625,30.21875 0.69522,0.69522 1.125,6.11136 1.125,14.6875 0,8.91418 0.40265,13.9964 1.15625,14.75 0.655,0.655 1.32507,5.56957 1.5625,11.4375 0.22922,5.66514 0.77848,11.2125 1.25,12.3125 0.47153,1.1 1.09498,5.53938 1.375,9.875 0.28001,4.33562 1.00687,8.38187 1.59375,8.96875 0.58688,0.58688 1.0625,3.97839 1.0625,7.5625 0,8.55035 2.26237,14.49649 6.34375,16.5625 3.50279,1.77312 5.74749,3.09217 10.15625,6.03125 1.65005,1.1 4.57269,2.82226 6.5,3.84375 1.9273,1.02148 4.9367,2.93398 6.6875,4.25 1.7508,1.31601 3.50897,2.40625 3.90625,2.40625 0.39728,0 2.19728,1.125 4,2.5 1.80272,1.375 3.63893,2.5 4.09375,2.5 0.45481,0 2.04838,1.125 3.53125,2.5 1.48288,1.375 3.31209,2.5 4.09375,2.5 0.78166,0 2.00281,0.675 2.6875,1.5 0.68469,0.825 1.75485,1.5285 2.375,1.5625 0.62016,0.034 4.5,2.86595 8.625,6.3125 l 7.5,6.28125 0.28125,6.3125 c 0.1676,3.51237 -0.16559,6.79059 -0.75,7.375 -0.57836,0.57836 -1.03125,1.69937 -1.03125,2.46875 0,0.76938 -0.64013,2.79813 -1.40625,4.53125 -0.76611,1.73312 -1.66006,3.83125 -2,4.65625 -0.33994,0.825 -1.47751,2.85 -2.53125,4.5 -1.05375,1.65 -1.9598,4.61162 -2,6.5625 -0.05914,2.87017 0.70082,4.27697 3.9375,7.4375 4.42596,4.32183 4.7506,5.97235 2.34375,11.34375 C 77.5616,334.2136 74.64313,339.78192 72.59375,342 c -1.76382,1.90903 -2.28125,3.65437 -2.28125,7.5 0,4.89104 0.09307,5.03817 3.75,6.34375 2.0625,0.73635 5.9092,1.63927 8.5625,2 4.04657,0.55016 5.61815,1.46022 9.75,5.625 l 4.9375,4.96875 0,37.1875 46,0 0,-37.125 4.09375,-4.25 c 2.23543,-2.3375 4.88007,-4.25 5.90625,-4.25 1.02619,0 2.16008,-0.45 2.5,-1 0.33992,-0.55 2.98536,-1 5.875,-1 4.45099,0 5.66105,-0.4364 7.9375,-2.8125 3.11652,-3.25295 3.25945,-5.51313 0.65625,-9.6875 -2.15741,-3.45951 -3.73537,-6.28474 -6.90625,-12.25 -1.24397,-2.34025 -2.69446,-4.50779 -3.1875,-4.8125 -0.49304,-0.30471 -0.875,-2.07742 -0.875,-3.9375 0,-1.86008 -0.45,-3.66008 -1,-4 -2.10309,-1.29978 -0.92545,-5.51205 2.5,-8.9375 2.6192,-2.61921 3.5,-4.34582 3.5,-6.875 0,-3.3714 -2.28682,-9.12131 -4.0625,-10.21875 -0.51518,-0.31839 -0.95125,-1.57621 -0.96875,-2.78125 -0.0175,-1.20504 -0.6925,-3.05738 -1.5,-4.125 -0.80751,-1.06762 -1.46875,-3.40008 -1.46875,-5.1875 0,-1.78742 -0.45,-3.53508 -1,-3.875 -0.55,-0.33992 -1,-2.38571 -1,-4.5625 0,-3.38779 0.63158,-4.6059 4.5,-8.3125 2.48561,-2.38163 7.09811,-6.03399 10.25,-8.125 3.15188,-2.09102 6.94727,-4.63816 8.4375,-5.65625 1.49023,-1.01809 3.06523,-1.866 3.5,-1.875 0.43477,-0.009 2.32547,-1.35879 4.1875,-3 1.86203,-1.64122 3.84519,-2.96875 4.40625,-2.96875 0.56105,0 2.50978,-1.125 4.3125,-2.5 1.80272,-1.375 3.74612,-2.5 4.34375,-2.5 1.47723,0 8.26045,-4.35428 9.9375,-6.375 0.74678,-0.89981 1.98141,-1.625 2.75,-1.625 1.64609,0 8.91096,-4.38307 12.125,-7.3125 1.86528,-1.7001 2.25,-3.07799 2.25,-8.15625 0,-3.36913 0.46079,-6.58579 1.03125,-7.15625 0.57045,-0.57045 1.26513,-5.0667 1.5625,-9.96875 0.29737,-4.90204 0.93676,-9.80625 1.40625,-10.90625 0.4695,-1.1 1.05142,-6.28739 1.28125,-11.53125 0.22984,-5.24386 0.92965,-10.50501 1.5625,-11.6875 0.68207,-1.27445 1.15625,-6.96628 1.15625,-14 0,-7.11668 0.41883,-12.32508 1.0625,-12.96875 0.69455,-0.69455 1.29139,-12.30727 1.65625,-32.9375 0.558,-31.550479 0.53222,-31.882947 -1.5625,-33.75 -1.33542,-1.190284 -3.6293,-1.90625 -6.1875,-1.90625 -4.39702,0 -3.72205,-0.5288 -27.21875,22.71875 -8.6592,8.5674 -8.75,8.68751 -8.75,13.59375 0,2.72673 0.42923,4.96875 0.96875,4.96875 0.53952,0 1.28584,1.21166 1.65625,2.6875 0.81544,3.24894 2.14787,5.8136 5.125,9.96875 1.2375,1.72716 2.25,3.58974 2.25,4.125 0,0.53525 0.675,1.53406 1.5,2.21875 1.1785,0.97807 1.5,3.77708 1.5,13.0625 0,6.50019 -0.37735,12.0555 -0.84375,12.34375 -0.46639,0.28825 -1.1809,6.06029 -1.5625,12.8125 -0.38159,6.7522 -1.12924,12.69174 -1.65625,13.21875 -0.52701,0.52701 -0.9375,4.53539 -0.9375,8.90625 0,7.63046 -0.13763,8.1329 -3.5625,12.3125 -2.82918,3.45263 -4.22532,4.3498 -6.75,4.375 -1.75068,0.0175 -4.05738,0.6925 -5.125,1.5 -1.06762,0.80751 -2.95008,1.46875 -4.1875,1.46875 -1.23742,0 -2.53508,0.45 -2.875,1 -0.33992,0.55 -1.63758,1 -2.875,1 -1.23742,0 -3.11988,0.66124 -4.1875,1.46875 -1.06762,0.8075 -2.70707,1.4825 -3.625,1.5 -0.91793,0.0175 -2.94293,0.66337 -4.5,1.4375 -6.28279,3.12359 -8.0209,3.68757 -11.9375,3.84375 -3.68568,0.14698 -4.65863,-0.36673 -9.75,-5.28125 l -5.625,-5.46875 0,-66.6875 c 0,-57.942012 0.19666,-66.852908 1.5,-68.15625 0.825,-0.825 1.5,-2.111344 1.5,-2.84375 0,-0.732405 1.125,-2.548375 2.5,-4.03125 1.375,-1.482876 2.5,-3.370955 2.5,-4.1875 0,-0.816545 0.42232,-1.744106 0.9375,-2.0625 1.85596,-1.147046 4.04035,-6.914711 3.96875,-10.4375 -0.0402,-1.977999 -0.915,-4.94375 -1.96875,-6.59375 -1.05374,-1.65 -2.19592,-3.675 -2.53125,-4.5 -0.85164,-2.095266 -6.3062,-13.183166 -7.375,-15 -0.48533,-0.825 -1.58277,-3.075 -2.46875,-5 -0.88597,-1.925 -2.03614,-4.175 -2.53125,-5 -0.49512,-0.825 -1.16375,-2.175 -1.5,-3 -0.88952,-2.18243 -2.90517,-5.5599152 -4.4375,-7.40625 C 124.60727,2.6310429 122.58351,2.1039782 120.5,2.03125 z"
         transform="translate(229.6944,2)"
         id="path4412" />
    </g>
    <rect
       y="368.716"
       x="320.89465"
       height="945.64294"
       width="57.414978"
       id="rect5219"
       style="fill:#f6bb42;fill-opacity:1;stroke:none" />
    <path
       transform="matrix(1.1059742,0,0,1.0045838,155.57806,640.91356)"
       d="m 201.36684,669.85059 c 0,8.0818 -17.89409,25.97589 -25.97589,25.97589 -8.08181,0 -25.9759,-17.89409 -25.9759,-25.97589 0,-8.0818 17.89409,-25.9759 25.9759,-25.9759 8.0818,0 25.97589,17.8941 25.97589,25.9759 z"
       inkscape:randomized="0"
       inkscape:rounded="0.22"
       inkscape:flatsided="true"
       sodipodi:arg2="0.78539816"
       sodipodi:arg1="0"
       sodipodi:r2="18.367727"
       sodipodi:r1="25.975891"
       sodipodi:cy="669.85059"
       sodipodi:cx="175.39095"
       sodipodi:sides="4"
       id="path5223"
       style="fill:#f6bb42;fill-opacity:1;stroke:none"
       sodipodi:type="star" />
  </g>
  <path
     style="fill:#2c3e50;fill-opacity:1"
     d="m 87.416702,163.31629 -4.264173,0.061 -0.53595,-0.86737 -0.53594,-0.86738 1.280641,-5.33833 1.28064,-5.33832 -3.70726,-9.68561 -3.70727,-9.68559 -0.78367,-8.1087 -0.78366,-8.1087 -2.29344,-8 c -1.26139,-4.40001 -2.48409,-8.668438 -2.71711,-9.485418 l -0.42366,-1.48541 -2.47595,7.352558 c -1.36176,4.0439 -3.114321,8.58704 -3.89456,10.09586 l -1.41862,2.7433 0.59649,7.11493 0.59648,7.11492 -2.34867,6.27463 -2.34868,6.27463 -0.0443,7.9328 -0.0443,7.93279 -4.5,1.0745 c -2.475,0.59097 -6.04077,1.06139 -7.92394,1.04537 l -3.42395,-0.0291 -0.38022,-1.14066 -0.38022,-1.14067 3.69356,-3.69356 3.69356,-3.69357 -0.53127,-13.09896 -0.53127,-13.09896 1.27098,-5.04498 c 0.69904,-2.77473 1.51079,-7.89138 1.80388,-11.37032 l 0.5329,-6.32536 -1.74074,1.57536 -1.74075,1.57535 -1.64821,0 -1.6482,0 -1.52256,-2.32371 -1.52255,-2.32371 0.88675,-11.031358 0.88675,-11.031359 0.99143,-1.89493 0.99142,-1.89493 0.70638,-9 0.70638,-9 1.35228,-2.11918 1.35228,-2.11917 5.49713,-3.10239 5.49713,-3.10239 0.68865,-4.77844 c 0.37875,-2.62814 1.26717,-6.19757 1.97425,-7.93207 l 1.28559,-3.153642 2.16347,-0.686655 2.16345,-0.686656 2.48279,0.623139 2.48278,0.623139 1.87441,4.217155 1.87441,4.21716 0.12698,-2 c 0.0698,-1.1 0.31632,-7.042315 0.54774,-13.205139 l 0.42077,-11.205124 -0.977109,-0.603883 -0.9771,-0.603883 0,-2.2409836 0,-2.240983 1.2,-1.2 1.2,-1.2 2.64501,0 2.64501,0 1.654993,1.828741 c 0.91025,1.005807 1.65499,2.490807 1.65499,3.2999996 0,0.809193 -0.50361,1.974873 -1.11914,2.590399 l -1.119143,1.119139 1.064213,4.830861 c 0.58531,2.656974 1.3493,9.854065 1.69776,15.993536 l 0.63356,11.16268 -1.5132,5.33732 c -0.83226,2.93553 -1.992643,7.18953 -2.578633,9.45334 -0.58598,2.26382 -1.06542,5.60687 -1.06542,7.42901 l 0,3.31298 -1.17219,3.24162 -1.17218,3.24162 2.86241,6.329379 2.862413,6.32937 -0.2634,11.032748 -0.26341,11.03275 2.57318,6.83631 2.57318,6.83631 0,9.43939 0,9.43938 1.08553,6.99644 1.08554,6.99643 -1.41698,2.13409 -1.41698,2.13407 -4.26416,0.061 z M 52.078039,100.47638 c 0.25872,-0.25872 0.60012,-3.311838 0.75868,-6.784718 l 0.28828,-6.31433 -1.35561,3.80007 -1.35561,3.80007 0.59693,2.98466 c 0.32831,1.64156 0.80861,2.772968 1.06733,2.514248 z m 3.61238,-17.435028 2.28171,-4.335979 -0.42619,-2.90381 -0.42619,-2.90382 -0.84927,0.52488 -0.84927,0.52487 -0.58059,3.71492 c -0.31933,2.04321 -0.77215,5.06492 -1.00626,6.714919 l -0.42565,3 2.28171,-4.33598 z"
     id="path4334"
     inkscape:connector-curvature="0" />
</svg>
