<?xml version="1.0" encoding="UTF-8" standalone="no"?>
<!-- Created with Inkscape (http://www.inkscape.org/) -->

<svg
   xmlns:dc="http://purl.org/dc/elements/1.1/"
   xmlns:cc="http://creativecommons.org/ns#"
   xmlns:rdf="http://www.w3.org/1999/02/22-rdf-syntax-ns#"
   xmlns:svg="http://www.w3.org/2000/svg"
   xmlns="http://www.w3.org/2000/svg"
   xmlns:xlink="http://www.w3.org/1999/xlink"
   xmlns:sodipodi="http://sodipodi.sourceforge.net/DTD/sodipodi-0.dtd"
   xmlns:inkscape="http://www.inkscape.org/namespaces/inkscape"
   width="64"
   height="64"
   id="svg5623"
   version="1.1"
   inkscape:version="0.48.4 r9939"
   inkscape:export-filename="/home/guada/prjs/trydent/roman/src/main/resources/web/img/trydent_icon.png"
   inkscape:export-xdpi="90"
   inkscape:export-ydpi="90"
   sodipodi:docname="New document 34">
  <defs
     id="defs5625">
    <linearGradient
       id="linearGradient6170">
      <stop
         style="stop-color:#4fc1e9;stop-opacity:1;"
         offset="0"
         id="stop6172" />
      <stop
         style="stop-color:#1ba4d5;stop-opacity:1;"
         offset="1"
         id="stop6174" />
    </linearGradient>
    <linearGradient
       inkscape:collect="always"
       xlink:href="#linearGradient6170"
       id="linearGradient6176"
       x1="-65.941269"
       y1="-7.8131757"
       x2="-24.122194"
       y2="33.888321"
       gradientUnits="userSpaceOnUse" />
  </defs>
  <sodipodi:namedview
     id="base"
     pagecolor="#ffffff"
     bordercolor="#666666"
     borderopacity="1.0"
     inkscape:pageopacity="0.0"
     inkscape:pageshadow="2"
     inkscape:zoom="3.959798"
     inkscape:cx="27.050134"
     inkscape:cy="33.009239"
     inkscape:document-units="px"
     inkscape:current-layer="layer1"
     showgrid="false"
     fit-margin-top="0"
     fit-margin-left="0"
     fit-margin-right="0"
     fit-margin-bottom="0"
     inkscape:window-width="1863"
     inkscape:window-height="1056"
     inkscape:window-x="1977"
     inkscape:window-y="24"
     inkscape:window-maximized="1" />
  <metadata
     id="metadata5628">
    <rdf:RDF>
      <cc:Work
         rdf:about="">
        <dc:format>image/svg+xml</dc:format>
        <dc:type
           rdf:resource="http://purl.org/dc/dcmitype/StillImage" />
        <dc:title></dc:title>
      </cc:Work>
    </rdf:RDF>
  </metadata>
  <g
     inkscape:label="Layer 1"
     inkscape:groupmode="layer"
     id="layer1"
     transform="translate(929.07402,-579.08934)">
    <path
       sodipodi:type="arc"
       style="fill:url(#linearGradient6176);fill-opacity:1;stroke:none"
       id="path5642-4"
       sodipodi:cx="-46.340748"
       sodipodi:cy="9.5780315"
       sodipodi:rx="21.844549"
       sodipodi:ry="21.844549"
       d="m -24.496199,9.5780315 a 21.844549,21.844549 0 1 1 -43.689098,0 21.844549,21.844549 0 1 1 43.689098,0 z"
       transform="matrix(1.3504552,0,0,1.3504552,-834.49292,598.15464)" />
    <g
       transform="matrix(0.14057385,0,0,0.14057385,-857.71334,518.56631)"
       id="g5066">
      <path
         id="path3144"
         d="m -280.99935,487.86847 c -1.47275,0.0503 -2.97577,0.34882 -4.43752,0.90378 -2.10097,0.79764 -4.43127,4.3771 -7.84379,12.0608 -0.60905,1.37134 -3.39164,6.53186 -6.15629,11.46868 -2.76467,4.93681 -6.43603,11.57888 -8.15629,14.74098 -4.68031,8.60311 -4.1508,14.99847 2.00001,24.15277 2.73541,4.11701 5.14753,7.7248 7.12504,11.99847 0.62419,0.37793 1,25.34718 1,67.69009 0,67.09441 -0.0188,67.08668 -4.03127,70.24561 -4.74306,3.7341 -7.66162,2.58209 -15.34383,1.09078 -11.14799,-2.83732 -19.45516,-3.75012 -30.21891,-7.66656 -17.59074,-5.07984 -14.96318,-50.89014 -17.25008,-67.81475 -0.50386,-9.25016 -0.50022,-9.2519 6.18753,-20.66231 10.4902,-17.89805 10.7467,-17.00323 -10.1563,-37.67832 -16.86126,-16.67741 -16.88203,-16.70437 -22.34387,-16.70437 -18.97529,5.65044 -4.01815,107.80543 0.46875,137.56173 3.9417,27.60386 28.37194,36.47454 52.96903,52.32581 4.1591,1.86947 11.92476,7.31335 17.06258,11.9673 5.39408,4.88606 4.44573,12.66226 -3.37501,27.86139 -4.72615,9.18498 -4.62682,12.49808 0.5625,18.0133 2.2397,2.38036 4.09377,4.80709 4.09377,5.39152 0,2.09483 -8.73291,19.76646 -11.53131,23.34249 -3.27222,4.18144 -2.91367,11.83837 0.0937,13.18274 4.50373,2.04173 5.96656,2.42204 11.25006,4.02026 3.82718,0.78182 5.07367,2.1542 9.2188,6.51346 4.70647,4.94958 4.69284,4.94928 29.56265,4.98638 0.0946,1.4e-4 0.15617,-1.4e-4 0.25001,0 l 0,-368.99203 c -0.33191,-0.0133 -0.66338,-0.0115 -1.00001,0 z"
         style="fill:#ffce54;fill-opacity:1;stroke:#ffce54;stroke-width:0.99863958;stroke-linejoin:miter;stroke-opacity:1"
         inkscape:connector-curvature="0" />
      <path
         id="path3144-2"
         d="m -279.00071,487.87311 c 1.47275,0.0503 2.97578,0.34881 4.43753,0.90378 2.10097,0.79763 4.43127,4.37709 7.84379,12.0608 0.60905,1.37134 3.39164,6.53186 6.15629,11.46867 2.76466,4.93681 6.43603,11.57889 8.15629,14.74098 4.68031,8.60311 4.15081,14.99847 -2.00001,24.15277 -2.73541,4.11701 -5.14753,7.72481 -7.12504,11.99848 -0.62419,0.37792 -1,25.34719 -1,67.6901 0,67.09441 0.0188,67.08668 4.03127,70.24561 4.74306,3.73409 7.66162,2.58207 15.34384,1.09077 11.14799,-2.83731 19.45517,-3.75012 30.21891,-7.66656 17.59075,-5.07984 14.9632,-50.89014 17.25011,-67.81475 0.50385,-9.25016 0.50021,-9.25191 -6.18754,-20.66231 -10.49021,-17.89804 -10.74671,-17.00323 10.1563,-37.67833 16.86127,-16.67741 16.88204,-16.70437 22.34387,-16.70437 18.97532,5.65044 4.01816,107.80544 -0.46874,137.56173 -3.9417,27.60387 -28.37195,36.47456 -52.96905,52.32582 -4.15911,1.86947 -11.92477,7.31336 -17.06259,11.9673 -5.39409,4.88607 -4.44574,12.66225 3.37501,27.8614 4.72616,9.18497 4.62682,12.49806 -0.5625,18.01329 -2.23969,2.38036 -4.09377,4.8071 -4.09377,5.39152 0,2.09483 8.73292,19.76645 11.53131,23.34249 3.27223,4.18144 2.91367,11.83837 -0.0937,13.18273 -4.50372,2.04174 -5.96657,2.42205 -11.25007,4.02027 -3.82717,0.78182 -5.07366,2.1542 -9.21879,6.51346 -4.70648,4.94958 -4.69285,4.94928 -29.56267,4.98638 -0.0946,1.4e-4 -0.15616,-1.4e-4 -0.25,0 l 0,-368.99203 c 0.33191,-0.0133 0.66337,-0.0115 1,0 z"
         style="fill:#f6bb42;fill-opacity:1;stroke:#f6bb42;stroke-width:0.99863976;stroke-opacity:1"
         inkscape:connector-curvature="0" />
    </g>
    <path
       sodipodi:type="arc"
       style="fill:none;fill-opacity:1;stroke:#ecf0f1;stroke-width:3.70232796999999980;stroke-miterlimit:4;stroke-opacity:1;stroke-dasharray:none"
       id="path5642"
       sodipodi:cx="-46.340748"
       sodipodi:cy="9.5780315"
       sodipodi:rx="21.844549"
       sodipodi:ry="21.844549"
       d="m -24.496199,9.5780315 a 21.844549,21.844549 0 1 1 -43.689098,0 21.844549,21.844549 0 1 1 43.689098,0 z"
       transform="matrix(1.3504552,0,0,1.3504552,-834.49292,598.15464)" />
  </g>
</svg>
