<?xml version="1.0" encoding="UTF-8" standalone="no"?>
<!-- Created with Inkscape (http://www.inkscape.org/) -->

<svg
   xmlns:dc="http://purl.org/dc/elements/1.1/"
   xmlns:cc="http://creativecommons.org/ns#"
   xmlns:rdf="http://www.w3.org/1999/02/22-rdf-syntax-ns#"
   xmlns:svg="http://www.w3.org/2000/svg"
   xmlns="http://www.w3.org/2000/svg"
   xmlns:sodipodi="http://sodipodi.sourceforge.net/DTD/sodipodi-0.dtd"
   xmlns:inkscape="http://www.inkscape.org/namespaces/inkscape"
   id="svg3155"
   version="1.1"
   inkscape:version="0.48.4 r9939"
   width="3840"
   height="946"
   sodipodi:docname="waves.png">
  <metadata
     id="metadata3161">
    <rdf:RDF>
      <cc:Work
         rdf:about="">
        <dc:format>image/svg+xml</dc:format>
        <dc:type
           rdf:resource="http://purl.org/dc/dcmitype/StillImage" />
        <dc:title></dc:title>
      </cc:Work>
    </rdf:RDF>
  </metadata>
  <defs
     id="defs3159" />
  <sodipodi:namedview
     pagecolor="#ffffff"
     bordercolor="#666666"
     borderopacity="1"
     objecttolerance="10"
     gridtolerance="10"
     guidetolerance="10"
     inkscape:pageopacity="0"
     inkscape:pageshadow="2"
     inkscape:window-width="1863"
     inkscape:window-height="1056"
     id="namedview3157"
     showgrid="false"
     inkscape:zoom="0.35052083"
     inkscape:cx="1920"
     inkscape:cy="626.71163"
     inkscape:window-x="1977"
     inkscape:window-y="24"
     inkscape:window-maximized="1"
     inkscape:current-layer="svg3155" />
  <path
     inkscape:connector-curvature="0"
     id="path3225"
     d="m 2078.0927,482.03747 c -7.8963,-0.4522 -16.8664,-1.286 -19.9336,-1.853 -3.0673,-0.567 -7.612,-1.0309 -10.0995,-1.0309 -6.1241,0 -38.6438,-5.0379 -62.11,-9.622 -35.8544,-7.004 -77.9869,-19.1658 -119.3746,-34.458 -27.5659,-10.1852 -30.0213,-11.1394 -31.0754,-12.076 -0.5225,-0.4642 -1.5597,-0.844 -2.3049,-0.844 -0.7451,0 -3.2426,-0.8502 -5.55,-1.8893 -2.3073,-1.039 -7.3451,-3.1187 -11.1951,-4.6215 -3.85,-1.5027 -8.35,-3.3196 -10,-4.0375 -1.65,-0.7178 -9.3,-3.8799 -17,-7.0268 -7.7,-3.1469 -18.6326,-7.6799 -24.2947,-10.0733 -5.6621,-2.3934 -10.5441,-4.3516 -10.8489,-4.3516 -0.3048,0 -1.9721,-0.652 -3.7053,-1.4488 -2.8752,-1.3219 -28.1931,-11.4308 -46.6511,-18.6268 -106.8677,-41.66333 -217.7601,-68.50557 -336,-81.33102 -37.9314,-4.11441 -51.1781,-5.18518 -106,-8.56831 -36.2684,-2.23817 -113.6616,-3.11207 -183.0001,-2.06639 -37.675,0.56817 -70.75,1.2626 -73.5,1.54318 -2.75,0.28057 -15.80003,0.95963 -29.00003,1.50902 -30.6403,1.27525 -62.584,3.5496 -98.99997,7.04866 -40.90653,3.93052 -67.08413,7.27951 -105.50003,13.49693 -26.1889,4.23855 -28.1144,4.5997 -64,12.00421 -19.6696,4.05855 -72.81597,17.01439 -97.5,23.76821 -7.15,1.95632 -19.3,5.16923 -27,7.13981 -12.47131,3.1917 -27.78234,7.5489 -47.5,13.5177 -20.33732,6.1564 -67.48895,16.2278 -96,20.5051 -54.93761,8.242 -108.71244,12.5109 -157.52677,12.5052 -29.28118,0 -67.58142,-1.3072 -87.97322,-2.9948 -38.67284,-3.2005 -51.6026,-4.4727 -66.5,-6.5434 -5.775,-0.8027 -17.475,-2.3937 -26,-3.5355 -8.525004,-1.1419 -20.675004,-2.9793 -27.000004,-4.0833 -6.325,-1.1039 -15.325,-2.6424 -20,-3.4189 -4.675,-0.7765 -11.875,-2.0813 -16,-2.8995 -4.125,-0.8183 -10.3644,-1.9508 -13.86534,-2.5168 -3.50094,-0.566 -6.78808,-1.2903 -7.30477,-1.6097 -0.51669,-0.3193 -4.17728,-1.1754 -8.1346639,-1.9024 -14.69029,-2.6989 -48.1419301,-10.5149 -81.1952301,-18.97146 -37.445552,-9.5803 -46.908742,-11.83922 -62.500002,-14.91913 -39.21293,-7.74615 -62.70075,-9.81868 -110.25,-9.72828 l -37.75,0.0718 0,-196.47268 c 0,-108.059966 0.25458,-196.472666 0.56574,-196.472666 0.31116,0 1.48216,0.49045 2.60223,1.0899 1.12007,0.59944 5.02799,1.5046 8.68426,2.01146 5.97077,0.82772 12.38655,2.52935 18.94483,5.02465 1.26338,0.4807 3.28838,0.86766 4.5,0.85993 1.21162,-0.008 6.25294,1.29643 11.20294,2.89814 24.61937,7.96627 37.46216,11.6583 50.5,14.51771 4.125,0.90468 11.55,2.55987 16.5,3.6782 4.95,1.11833 19.35,3.1363 32,4.48438 12.65,1.34807 26.62335,2.89757 31.0519,3.44334 10.480952,1.29164 33.552192,1.26961 44.396202,-0.0424 30.71103,-3.7157 35.9607,-4.56056 49.0519,-7.89426 6.3250001,-1.61068 14.4250001,-3.42997 18.0000001,-4.04288 20.2927639,-3.47906 31.7958739,-6.62161 88.0000039,-24.04081 15.890994,-4.92506 35.635354,-10.25184 46.500004,-12.54513 4.4,-0.92874 10.21918,-2.30818 12.9315,-3.06543 2.71233,-0.75725 6.26381,-1.37681 7.89219,-1.37681 1.62838,0 5.9342,-0.84624 9.5685,-1.88052 21.10008,-6.00489 58.24491,-11.957124 88.6078,-14.198864 16.41724,-1.21211 72.78628,-0.59687 86.5,0.94411 29.15657,3.27625 58.46783,9.996634 83.5,19.144584 2.75,1.00498 10.625,3.056 17.5,4.55781 6.875,1.50182 13.625,3.27074 15,3.93094 1.375,0.6602 5.425,1.75469 9,2.43219 3.575,0.67751 8.4125,1.64536 10.75,2.15079 5.37739,1.16273 12.46638,2.66418 18.25,3.86535 2.475,0.51402 8.55,1.84172 13.5,2.95045 8.47976,1.89934 24.858,4.99967 37.75,7.14591 12.8115,2.13284 18.44222,3.13213 22.25,3.94873 7.88521,1.69104 18.12167,3.07152 25.09877,3.3848 3.90432,0.17532 7.51702,0.57725 8.02821,0.89318 0.51119,0.31594 13.97612,0.88988 29.92206,1.27543 28.22833,0.68253 49.70086,-0.19121 63.45096,-2.58188 3.025,-0.52595 10,-1.6762 15.5,-2.55611 5.5,-0.87992 12.475,-2.25664 15.5,-3.05938 3.025,-0.80274 7.525,-1.85416 10,-2.33649 2.475,-0.48234 7.2,-1.7723 10.5,-2.86659 3.3,-1.09429 11.4,-3.60865 18,-5.58747 6.6,-1.97882 14.0854,-4.26365 16.6342,-5.07741 2.5488,-0.81376 5.6394,-1.47956 6.8679,-1.47956 1.2285,0 7.6931,-1.76701 14.3657,-3.92668 6.6727,-2.15968 15.7322,-4.69011 20.1322,-5.62319 4.4,-0.93308 10.25,-2.33124 13.00003,-3.10703 8.472,-2.38998 37.8055,-8.14945 45,-8.83548 1.65,-0.15734 8.85,-0.88161 15.99997,-1.60949 25.3099,-2.576584 76.4284,-1.28043 105.21003,2.6677 35.3901,4.85464 48.5043,6.92103 55.8375,8.79822 3.2739,0.83807 10.2275,2.24875 15.4525,3.13486 9.4324,1.59963 12.8948,2.37731 22.5,5.05363 2.75,0.76624 8.375,2.12106 12.5,3.01072 4.125,0.88966 10.425,2.45192 14,3.4717 15.0555,4.29461 52.8432,12.50533 64.5,14.01489 3.3,0.42735 8.25,1.2949 11,1.92789 2.75,0.63298 10.1578,1.77204 16.4616,2.53124 6.3038,0.7592 12.5628,1.65679 13.9089,1.99464 1.3461,0.33785 10.1385,1.06691 19.5386,1.62014 9.4,0.55322 20.6261,1.25151 24.9468,1.55174 4.3208,0.30024 13.7708,-0.0113 21,-0.6923 7.2293,-0.681 15.3942,-1.36214 18.1442,-1.51363 2.75,-0.15149 7.025,-0.76086 9.5,-1.35414 8.3541,-2.00257 21.4773,-4.96741 25,-5.64812 5.142,-0.9936 21.9787,-6.90229 34,-11.93197 9.9402,-4.15894 29.6884,-9.78514 44,-12.53544 6.3507,-1.22043 14.3747,-2.3378 28.5,-3.96871 3.85,-0.44452 10.375,-1.41928 14.5,-2.16614 5.6888,-1.02998 20.0579,-1.35877 59.5,-1.36148 47.872,-0.003 53.3892,0.1732 69.5,2.22321 33.7296,4.29191 48.4456,6.76128 61,10.23594 4.125,1.14167 9.975,2.33469 13,2.65115 3.025,0.31647 7.3,1.15524 9.5,1.86395 2.2,0.70871 7.6,2.05535 12,2.99254 4.4,0.93718 13.625,3.46633 20.5,5.62032 6.875,2.15399 14.975,4.5728 18,5.37514 3.025,0.80234 8.65,2.54736 12.5,3.87783 3.85,1.33046 8.8,2.87067 11,3.42269 2.2,0.55201 8.95,2.88795 15,5.19098 6.05,2.30303 13.5326,4.9969 16.628,5.98638 3.0954,0.98948 6.9204,2.52435 8.5,3.41081 7.3678,4.13474 32.9351,11.76057 45.372,13.53286 26.1152,3.7215 41.3058,3.72845 70,0.032 16.4612,-2.12054 31.4135,-6.66227 47.5,-14.428 25.5831,-12.35018 42.8124,-19.32522 69,-27.9337 9.35,-3.07356 19.7,-6.48741 23,-7.58631 12.9179,-4.30171 40.4455,-10.82875 56.7657,-13.4597 4.8212,-0.77721 9.1263,-1.63593 9.567,-1.90827 0.4406,-0.27235 4.371,-0.98315 8.7342,-1.57957 4.3632,-0.59642 10.1831,-1.5038 12.9331,-2.0164 24.2622,-4.52246 75.9908,-8.14504 113.5,-7.94846 22.5304,0.11808 70.5935,3.90139 94.5,7.4386 5.5,0.81379 14.725,2.15674 20.5,2.98435 9.0701,1.29981 29.8004,5.39059 50.5,9.9653 3.3,0.72932 10.5,2.54433 16,4.03337 5.5,1.48904 12.7,3.29474 16,4.01267 3.3,0.71793 8.7,2.1953 12,3.28305 33.8048,11.14278 41.9252,12.41392 62.5,9.78358 12.1685,-1.55565 31.1604,-5.72315 46,-10.09399 5.5517,-1.63521 7.5779,-2.14735 27.5,-6.95122 30.0892,-7.25546 32.0544,-7.66635 57.5,-12.02207 7.975,-1.36514 16.525,-2.9454 19,-3.51169 2.475,-0.56629 7.875,-1.45164 12,-1.96745 4.125,-0.5158 12.9,-1.65586 19.5,-2.53345 21.4488,-2.852 26.6898,-3.38928 48.5,-4.971874 27.8429,-2.02035 82.4926,-2.00202 109.5,0.0367 29.187,2.203284 45.3109,4.378884 84,11.334214 11.5353,2.07376 36.7734,7.80924 47,10.68098 3.3,0.92668 8.7,2.33963 12,3.13988 6.7182,1.62916 25.2047,7.30771 45.5,13.97635 16.2297,5.33274 19.0967,5.91801 39,7.96137 26.9665,2.7685 86.0129,1.87172 104.5,-1.58711 2.75,-0.51451 12.425,-1.88426 21.5,-3.0439 21.8519,-2.7923 28.453,-3.93323 49,-8.46916 3.575,-0.78921 9.875,-2.15075 14,-3.02564 12.2832,-2.60521 60.836,-14.36695 70,-16.95722 4.675,-1.32144 10.3,-2.70535 12.5,-3.07537 2.2,-0.37002 7.15,-1.58405 11,-2.69784 7.0401,-2.03666 34.688,-8.879314 44,-10.889674 2.75,-0.59369 8.375,-1.89446 12.5,-2.89059 20.8723,-5.04037 30.9137,-7.17188 37.9325,-8.05196 4.2454,-0.53232 10.2273,-1.62125 13.2933,-2.41983 6.6989,-1.74483 31.8409,-5.51638 36.8242,-5.52398 1.9525,-0.003 3.9775,-0.41034 4.5,-0.90525 0.5225,-0.4949 8.0375,-1.21498 16.7,-1.60017 l 15.75,-0.70031 0,253.10017 c 0,149.85125 -0.3682,253.10023 -0.9026,253.10023 -0.4964,0 -11.6339,-3.5421 -24.75,-7.8714 -13.1161,-4.3293 -28.3474,-9.0893 -33.8474,-10.5778 -5.5,-1.4886 -13.825,-3.794 -18.5,-5.1232 -8.8753,-2.5235 -17.0979,-4.4515 -40.5,-9.4959 -50.8954,-10.9709 -93.9856,-16.503 -148.5,-19.06511 -25.1179,-1.1805 -91.8818,-0.54249 -114.5,1.09419 -32.7367,2.36887 -41.5699,3.08354 -49.5,4.00489 -4.675,0.54316 -15.25,1.71475 -23.5,2.60355 -28.8755,3.11083 -84.6954,11.09868 -115.5,16.52808 -6.325,1.1148 -15.325,2.69 -20,3.5004 -4.675,0.8104 -14.35,2.5696 -21.5,3.9094 -7.15,1.3398 -19.075,3.5675 -26.5,4.9504 -7.425,1.383 -16.425,3.184 -20,4.0022 -3.575,0.8183 -19.325,4.0215 -35,7.1183 -15.675,3.0969 -31.65,6.2807 -35.5,7.0753 -3.85,0.7945 -9.025,1.8306 -11.5,2.3023 -2.475,0.4717 -14.4,2.9455 -26.5,5.4974 -58.6774,12.375 -90.1373,18.7635 -106,21.5254 -6.0532,1.0539 -27.082,4.8206 -34,6.0901 -2.75,0.5047 -8.825,1.7685 -13.5,2.8086 -4.675,1.04 -13,2.8494 -18.5,4.0207 -5.5,1.1713 -13.15,2.8019 -17,3.6236 -3.85,0.8217 -11.95,2.4284 -18,3.5705 -6.05,1.1421 -14.375,2.7135 -18.5,3.4922 -40.5071,7.6462 -116.6512,20.1822 -145.5,23.9543 -6.05,0.7911 -12.125,1.6724 -13.5,1.9584 -1.375,0.286 -6.1,0.9857 -10.5,1.5549 -23.069,2.984 -32.1401,4.1066 -43.6952,5.4077 -6.9824,0.7861 -14.1824,1.6793 -16,1.9849 -1.8176,0.3055 -8.4798,0.9968 -14.8048,1.5363 -6.325,0.5395 -18.475,1.6597 -27,2.4894 -28.206,2.745 -70.1228,5.5664 -97,6.529 -31.2552,1.1194 -99.4396,1.0539 -119.8569,-0.1151 z"
     style="fill:#23526b" />
  <path
     inkscape:connector-curvature="0"
     id="path3221"
     d="m 2059.7174,976.76377 c -8.7936,-0.76218 -23.4841,-2.8115 -35.5,-4.95223 -17.2292,-3.06951 -60.2401,-13.05261 -62.6486,-14.54112 -0.5531,-0.34185 -3.7834,-1.25139 -7.1785,-2.0212 -7.6203,-1.72784 -19.0499,-5.16576 -36.6729,-11.03087 -7.425,-2.47112 -16.2,-5.329 -19.5,-6.35084 -3.3,-1.02185 -8.7,-2.85053 -12,-4.06375 -25.3539,-9.32115 -120.8483,-41.1534 -145,-48.33452 -33.4989,-9.96037 -66.1125,-16.79031 -101,-21.1514 -17.0184,-2.12738 -67.8259,-2.96854 -94,-1.55625 -52.63,2.83979 -115.8136,13.60139 -186.5,31.76515 -11.825,3.03859 -23.525,5.92989 -26,6.42512 -2.475,0.49522 -8.775,2.01799 -14,3.38391 -5.225,1.36593 -11.75,2.9365 -14.5,3.49016 -2.75,0.55366 -9.05,1.92413 -14,3.04549 -4.95,1.12136 -16.425,3.61286 -25.5,5.53666 -9.075,1.92381 -19.2,4.13574 -22.5,4.9154 -3.3,0.77967 -13.425,2.83551 -22.5,4.56852 -9.075,1.73302 -21.9,4.20529 -28.5,5.49394 -6.6,1.28864 -14.025,2.62725 -16.5,2.97469 -2.475,0.34743 -10.575,1.72802 -18,3.06797 -27.7529,5.00843 -35.732,6.3431 -44.5,7.44352 -4.95,0.62125 -13.2751,1.7682 -18.5001,2.54878 -33.2816,4.97206 -79.981,9.57619 -131.49996,12.9647 -36.8718,2.42513 -114.29883,2.98619 -149.00003,1.07971 -42.59387,-2.34011 -59.04285,-3.44587 -68,-4.57121 -4.4,-0.55279 -13.85,-1.7297 -21,-2.61535 -7.15,-0.88565 -15.475,-2.02328 -18.5,-2.52807 -12.14428,-2.02653 -22.70869,-3.93387 -26.5,-4.78443 -2.2,-0.49355 -7.825,-1.65139 -12.5,-2.57297 -9.39977,-1.85298 -31.32248,-7.13518 -46,-11.08355 -5.225,-1.40557 -12.65,-3.37851 -16.5,-4.38431 -9.6171,-2.51245 -50.14761,-14.3481 -70.5,-20.5873 -2.475,-0.75873 -7.425,-2.23942 -11,-3.29041 -3.575,-1.051 -15.275,-4.49724 -26,-7.65832 -62.85493,-18.52584 -91.46969,-25.32559 -125,-29.70383 -15.68396,-2.04794 -21.49525,-2.28005 -55.99999,-2.23671 -33.07924,0.0416 -41.31598,0.36451 -58.5,2.29376 -21.53117,2.4173 -35.70094,4.30886 -49.37154,6.59073 -4.74565,0.79214 -14.02846,2.34196 -20.62846,3.44405 -6.6,1.1021 -22.575,4.07151 -35.50001,6.5987 -12.925,2.52719 -27.1,5.28918 -31.5,6.13775 -4.4,0.84857 -9.8,1.89784 -12,2.33171 -2.2,0.43387 -9.399996,1.78025 -15.999996,2.99196 -6.6,1.21171 -14.025,2.58469 -16.5,3.05107 -11.72682,2.20976 -29.09028,5.21002 -34.5,5.9613 -19.36629,2.68952 -38.2049701,5.0835 -46.5000051,5.90913 -12.7249499,1.26654 -26.0782499,2.91448 -33.9999999,4.19595 -3.575,0.57831 -11.225,1.46125 -17,1.96209 -5.775,0.50084 -19.275,1.81246 -30,2.91472 -36.112679,3.71146 -88.183289,3.67364 -122.877239,-0.0892 l -11.12276,-1.20641 0,-96.83696 c 0,-63.89132 0.34022,-96.83697 1,-96.83697 0.55,0 1,0.4151 1,0.92245 0,1.20549 5.15196,2.74397 11.8485,3.53821 2.94168,0.3489 6.99168,1.2235 9,1.94356 7.13849,2.55942 10.81905,3.59559 12.7225,3.58172 1.06095,-0.008 5.979,1.29643 10.929,2.89814 24.61937,7.96627 37.46215,11.6583 50.5,14.51771 4.125,0.90468 11.55,2.5615 16.5,3.68183 4.95,1.12033 19.574999,3.15669 32.499999,4.52524 12.925,1.36856 27.1,2.96768 31.5,3.55361 11.23823,1.49654 60.889185,-0.43086 64.226115,-2.49319 0.44287,-0.27371 4.39817,-0.98485 8.78955,-1.5803 4.39139,-0.59545 13.15934,-2.40199 19.48434,-4.01453 6.325,-1.61254 14.425,-3.43337 18,-4.04628 20.29276,-3.47906 31.795866,-6.6216 87.999996,-24.04081 22.27783,-6.90451 62.69963,-17.02567 67.8922,-16.99944 1.3157,0.007 5.3657,-0.83416 9,-1.86844 19.72968,-5.61489 59.97747,-12.18767 86.60781,-14.14373 15.0669,-1.10671 35.26558,-1.16406 35.92198,-0.102 0.297,0.48057 3.81105,0.96406 7.809,1.07444 3.99796,0.11037 8.39401,0.25362 9.76901,0.31832 5.7245,0.26936 10.08956,-0.31258 9.5,-1.26651 -0.3411,-0.55191 0.37628,-1 1.60097,-1 3.77266,0 32.08926,2.94126 37.89903,3.93659 35.26137,6.04099 47.62145,9.07725 69.5,17.07272 2.75,1.00498 10.625,3.056 17.5,4.55781 6.875,1.50182 13.625,3.27074 15,3.93094 1.375,0.6602 5.425,1.75469 9,2.43219 3.575,0.67751 8.4125,1.64536 10.75,2.15079 5.37739,1.16273 12.46638,2.66418 18.25,3.86535 2.475,0.51402 8.55,1.84172 13.5,2.95045 8.47976,1.89934 24.858,4.99967 37.75,7.14591 12.8115,2.13284 18.44222,3.13213 22.25,3.94873 7.88521,1.69104 18.12167,3.07152 25.09877,3.3848 3.90432,0.17532 7.52747,0.58371 8.05144,0.90754 0.52397,0.32383 14.65452,0.87263 31.40123,1.21957 23.99675,0.49713 33.83884,0.29778 46.44856,-0.94078 20.36426,-2.00025 35.4398,-4.34658 46.5,-7.23718 3.025,-0.79059 7.525,-1.83207 10,-2.3144 2.475,-0.48233 7.2,-1.7723 10.5,-2.86659 3.3,-1.09429 11.4,-3.60865 18,-5.58747 6.6,-1.97882 14.0854,-4.26365 16.6342,-5.07741 2.5488,-0.81376 5.6394,-1.47956 6.8679,-1.47956 1.2285,0 7.6931,-1.76243 14.3657,-3.9165 6.6727,-2.15408 15.5072,-4.65464 19.6322,-5.55682 4.125,-0.90217 12,-2.71668 17.50003,-4.03224 16.2318,-3.88252 33.7541,-7.29589 41,-7.98682 1.65,-0.15734 8.85,-0.88161 16,-1.60949 25.3099,-2.57658 76.42836,-1.28043 105.20996,2.6677 35.3902,4.85464 48.5044,6.92103 55.8376,8.79822 3.2739,0.83807 10.2275,2.24875 15.4525,3.13486 9.4324,1.59963 12.8948,2.37731 22.5,5.05363 2.75,0.76624 8.375,2.12106 12.5,3.01072 4.125,0.88966 10.425,2.45192 14,3.4717 15.0555,4.29461 52.8432,12.50533 64.5,14.01489 3.3,0.42735 8.25,1.2949 11,1.92789 2.75,0.63298 10.1577,1.77204 16.4615,2.53124 6.3038,0.7592 12.5628,1.65679 13.9089,1.99464 1.3461,0.33785 10.1385,1.06691 19.5386,1.62014 9.4,0.55322 20.6261,1.25151 24.9468,1.55174 4.3208,0.30024 13.7708,-0.0113 21,-0.6923 7.2293,-0.681 15.3942,-1.36214 18.1442,-1.51363 2.75,-0.15149 7.025,-0.76086 9.5,-1.35414 8.3541,-2.00257 21.4773,-4.96741 25,-5.64812 5.142,-0.9936 21.9787,-6.90229 34,-11.93197 9.9402,-4.15894 29.6884,-9.78514 44,-12.53544 6.3507,-1.22043 14.3747,-2.3378 28.5,-3.96871 3.85,-0.44452 10.375,-1.4155 14.5,-2.15774 10.5717,-1.90222 106.0059,-1.94052 121,-0.0486 40.8396,5.15312 56.5211,7.68444 69,11.13797 4.125,1.14159 9.975,2.33455 13,2.65102 3.025,0.31646 7.3,1.15524 9.5,1.86395 2.2,0.7087 7.6,2.05534 12,2.99253 4.4,0.93719 13.625,3.46634 20.5,5.62032 6.875,2.15399 14.975,4.57281 18,5.37515 3.025,0.80234 8.65,2.54736 12.5,3.87782 3.85,1.33047 8.8,2.87068 11,3.42269 2.2,0.55202 8.95,2.88796 15,5.19099 6.05,2.30302 13.6138,5.02147 16.8084,6.041 3.1946,1.01952 6.3683,2.31837 7.0526,2.88634 3.6213,3.00541 34.4782,12.26976 46.639,14.00271 26.1152,3.7215 41.3058,3.72844 70,0.032 16.4453,-2.1185 31.8269,-6.78032 47.5,-14.39616 30.0521,-14.60291 42.9383,-19.56477 93.5,-36.00233 4.125,-1.34103 15.15,-4.24553 24.5,-6.45445 24.6423,-5.82168 25.3524,-5.97328 32.7156,-6.98403 3.6935,-0.50702 7.0987,-1.15863 7.5669,-1.44802 0.4682,-0.28939 4.4212,-1.01415 8.7844,-1.61057 4.3632,-0.59642 10.1831,-1.5038 12.9331,-2.0164 24.2622,-4.52246 75.9908,-8.14503 113.5,-7.94846 22.5304,0.11808 70.5935,3.90139 94.5,7.43861 5.5,0.81378 14.725,2.15674 20.5,2.98434 9.0701,1.29982 29.8004,5.3906 50.5,9.9653 3.3,0.72932 10.5,2.54434 16,4.03338 5.5,1.48903 12.7,3.29473 16,4.01266 3.3,0.71793 8.7,2.1953 12,3.28305 33.8048,11.14279 41.9252,12.41392 62.5,9.78358 12.1685,-1.55564 31.1604,-5.72314 46,-10.09398 5.5517,-1.63521 7.5779,-2.14736 27.5,-6.95122 30.0892,-7.25546 32.0544,-7.66635 57.5,-12.02207 7.975,-1.36514 16.525,-2.94541 19,-3.51169 2.475,-0.56629 7.875,-1.45164 12,-1.96745 4.125,-0.51581 12.9,-1.65586 19.5,-2.53345 21.4278,-2.84922 26.6894,-3.38979 48,-4.93151 27.6025,-1.99692 83.459,-1.99642 110,9.8e-4 20.935,1.57551 36.8689,3.37348 52,5.86766 4.95,0.81594 11.7,1.92766 15,2.47047 20.3464,3.34676 49.1165,9.49298 64,13.67244 3.3,0.92668 8.7,2.33962 12,3.13988 6.7182,1.62916 25.2047,7.30771 45.5,13.97635 16.2297,5.33274 19.0967,5.91801 39,7.96137 26.9665,2.7685 86.0129,1.87172 104.5,-1.58711 2.75,-0.51451 12.425,-1.88427 21.5,-3.0439 21.8519,-2.7923 28.453,-3.93324 49,-8.46916 3.575,-0.78921 9.875,-2.15075 14,-3.02565 12.2832,-2.6052 60.836,-14.36694 70,-16.95722 4.675,-1.32143 10.3,-2.70534 12.5,-3.07536 2.2,-0.37003 7.15,-1.58405 11,-2.69784 7.0401,-2.03666 34.688,-8.87931 44,-10.88967 2.75,-0.59369 8.375,-1.89446 12.5,-2.89059 20.8723,-5.04037 30.9137,-7.17188 37.9325,-8.05196 4.2454,-0.53232 10.2331,-1.62275 13.3061,-2.42317 8.232,-2.14415 32.1167,-5.46927 46.0701,-6.41365 11.8217,-0.80012 11.9361,-0.82949 3.7746,-0.96877 -4.6291,-0.079 -8.2291,-0.31856 -8,-0.53234 0.2292,-0.21378 7.5042,-0.70886 16.1667,-1.10018 l 15.75,-0.71148 0,128.52073 0,128.52071 -2.75,0.5571 c -8.8805,1.79899 -37.3791,3.00119 -70.75,2.98453 -44.6063,-0.0223 -77.4259,-2.39873 -109.5,-7.92887 -4.675,-0.80606 -11.875,-1.92376 -16,-2.48379 -4.125,-0.56004 -10.2,-1.66979 -13.5,-2.46613 -3.3,-0.79633 -11.625,-2.58074 -18.5,-3.96534 -13.4981,-2.71847 -23.4704,-5.12112 -34.5,-8.31217 -3.85,-1.11388 -11.2239,-3.0078 -16.3864,-4.20873 -5.1625,-1.20093 -13.4875,-3.46488 -18.5,-5.03099 -5.0125,-1.56612 -11.8136,-3.59998 -15.1136,-4.5197 -3.3,-0.91971 -7.125,-2.0208 -8.5,-2.44686 -1.375,-0.42606 -6.1,-1.77844 -10.5,-3.00529 -7.5452,-2.10383 -36.036,-10.95483 -48.8363,-15.17159 -15.7449,-5.1868 -64.3133,-17.8262 -89.1637,-23.20388 -60.603,-13.11463 -128.5553,-14.83199 -223.5,-5.64853 -12.8999,1.24774 -52.8207,6.50775 -60.5,7.97155 -2.75,0.5242 -7.25,1.23947 -10,1.58948 -4.9626,0.63164 -25.1896,3.9866 -41.5,6.88344 -8.6897,1.54336 -9.8272,1.76681 -28,5.50021 -5.775,1.18641 -12.75,2.59061 -15.5,3.12044 -2.75,0.52984 -10.4,2.09553 -17,3.47931 -17.3124,3.6298 -25.5325,5.30905 -33.7474,6.89407 -3.9889,0.76965 -10.4026,2.15228 -14.2526,3.07252 -3.85,0.92024 -10.15,2.27545 -14,3.01157 -3.85,0.73613 -9.925,2.0146 -13.5,2.84105 -3.575,0.82646 -10.1,2.20356 -14.5,3.06024 -4.4,0.85667 -12.275,2.50245 -17.5,3.65728 -11.7784,2.60326 -15.9598,3.46399 -23.1847,4.7724 -3.1265,0.56621 -8.5265,1.73371 -12,2.59442 -3.4734,0.86072 -8.3403,1.96689 -10.8153,2.45816 -23.9604,4.75596 -31.2023,6.20331 -35.5,7.09496 -14.3857,2.98465 -25.8693,5.24778 -33.3946,6.58123 -4.617,0.81812 -8.7027,1.67794 -9.0793,1.91071 -0.3766,0.23277 -3.5741,0.89841 -7.1054,1.4792 -7.9783,1.31215 -15.1542,2.65162 -45.2835,8.45268 -38.1947,7.35395 -47.4655,9.01805 -95.1372,17.07698 -33.471,5.6583 -46.6355,7.68374 -74.5,11.46231 -8.525,1.15605 -17.525,2.53573 -20,3.06597 -2.475,0.53024 -11.475,1.64935 -20,2.4869 -8.525,0.83755 -21.575,2.20258 -29,3.03339 -7.425,0.83081 -19.8,1.93709 -27.5,2.45841 -7.7,0.52132 -16.25,1.19691 -19,1.50133 -2.75,0.30442 -19.625,1.21574 -37.5,2.02517 -34.6319,1.56822 -70.4345,1.72447 -86,0.37531 z"
     style="fill:#1c3044" />
  <path
     style="fill:#2c3e50;fill-opacity:1;stroke:none"
     d="m 1006.6101,-572.05172 1050.78,0 0,585.833176 -1050.78,0 z"
     id="rect3242"
     inkscape:connector-curvature="0" />
</svg>
